<?xml version="1.0" encoding="UTF-8" standalone="no"?>
<!-- Created with Inkscape (http://www.inkscape.org/) -->

<svg
   xmlns:dc="http://purl.org/dc/elements/1.1/"
   xmlns:cc="http://creativecommons.org/ns#"
   xmlns:rdf="http://www.w3.org/1999/02/22-rdf-syntax-ns#"
   xmlns:svg="http://www.w3.org/2000/svg"
   xmlns="http://www.w3.org/2000/svg"
   xmlns:sodipodi="http://sodipodi.sourceforge.net/DTD/sodipodi-0.dtd"
   xmlns:inkscape="http://www.inkscape.org/namespaces/inkscape"
   width="195.42839mm"
   height="84.771172mm"
   viewBox="0 0 195.42839 84.771172"
   version="1.1"
   id="svg8"
   inkscape:version="0.92.4 (5da689c313, 2019-01-14)"
   sodipodi:docname="logo.svg">
  <defs
     id="defs2">
    <filter
       inkscape:label="Glowing Bubble"
       inkscape:menu="Ridges"
       inkscape:menu-tooltip="Bubble effect with refraction and glow"
       x="-0.25"
       y="-0.25"
       width="1.5"
       height="1.5"
       style="color-interpolation-filters:sRGB;"
       id="filter1296">
      <feGaussianBlur
         stdDeviation="1"
         result="result1"
         id="feGaussianBlur1272" />
      <feGaussianBlur
         stdDeviation="10"
         result="result6"
         in="result1"
         id="feGaussianBlur1274" />
      <feComposite
         operator="atop"
         in="result6"
         in2="result1"
         result="result8"
         id="feComposite1276" />
      <feComposite
         operator="xor"
         result="fbSourceGraphic"
         in="result6"
         in2="result8"
         id="feComposite1278" />
      <feColorMatrix
         result="fbSourceGraphicAlpha"
         in="fbSourceGraphic"
         values="0 0 0 -1 0 0 0 0 -1 0 0 0 0 -1 0 0 0 0 2 0 "
         id="feColorMatrix1280" />
      <feGaussianBlur
         result="result0"
         in="fbSourceGraphicAlpha"
         stdDeviation="1"
         id="feGaussianBlur1282" />
      <feSpecularLighting
         specularExponent="35"
         specularConstant="1.5"
         surfaceScale="-2"
         lighting-color="rgb(255,255,255)"
         result="result1"
         in="result0"
         id="feSpecularLighting1286">
        <feDistantLight
           azimuth="230"
           elevation="60"
           id="feDistantLight1284" />
      </feSpecularLighting>
      <feComposite
         operator="in"
         result="result2"
         in="result1"
         in2="fbSourceGraphicAlpha"
         id="feComposite1288" />
      <feComposite
         k3="1"
         k2="1"
         operator="arithmetic"
         result="result4"
         in="fbSourceGraphic"
         in2="result2"
         id="feComposite1290" />
      <feComposite
         operator="atop"
         in="result9"
         in2="result4"
         result="result91"
         id="feComposite1292" />
      <feBlend
         mode="multiply"
         in2="result91"
         id="feBlend1294" />
    </filter>
  </defs>
  <sodipodi:namedview
     id="base"
     pagecolor="#ffffff"
     bordercolor="#666666"
     borderopacity="1.0"
     inkscape:pageopacity="0.0"
     inkscape:pageshadow="2"
     inkscape:zoom="0.98994949"
     inkscape:cx="427.15163"
     inkscape:cy="170.58586"
     inkscape:document-units="mm"
     inkscape:current-layer="layer1"
     showgrid="false"
     fit-margin-top="0"
     fit-margin-left="0"
     fit-margin-right="0"
     fit-margin-bottom="0"
     inkscape:pagecheckerboard="true"
     inkscape:window-width="1600"
     inkscape:window-height="826"
     inkscape:window-x="1366"
     inkscape:window-y="0"
     inkscape:window-maximized="1" />
  <metadata
     id="metadata5">
    <rdf:RDF>
      <cc:Work
         rdf:about="">
        <dc:format>image/svg+xml</dc:format>
        <dc:type
           rdf:resource="http://purl.org/dc/dcmitype/StillImage" />
        <dc:title />
      </cc:Work>
    </rdf:RDF>
  </metadata>
  <g
     inkscape:label="Camada 1"
     inkscape:groupmode="layer"
     id="layer1"
     transform="translate(-13.348419,-80.939016)">
    <g
       id="g826"
       transform="matrix(0.77884848,0,0,0.77884848,30.201495,45.167085)">
      <path
         style="fill:#a3635f;stroke-width:0.36266607"
         d="M 178.2207 32.667969 C 169.69078 32.700241 161.23726 32.791015 161.13086 32.908203 C 161.04032 33.007938 148.27553 55.366595 132.76367 82.59375 C 117.25181 109.8209 93.344064 151.76279 79.636719 175.79883 C 65.929375 199.83453 51.699659 224.80445 48.015625 231.28711 C 44.331594 237.76977 39.412343 246.42414 37.083984 250.51953 C 34.755625 254.61493 32.851562 258.16709 32.851562 258.41406 C 32.851562 258.83966 33.714689 260.36014 35.570312 263.20117 C 36.026298 263.89932 39.379708 269.28565 43.023438 275.16992 C 46.667165 281.05416 49.89303 286.15289 50.191406 286.50195 C 50.706327 287.10423 57.799938 287.13672 189.69141 287.13672 C 300.29499 287.13672 328.77023 287.04443 329.24805 286.68359 C 329.57822 286.43426 331.42112 283.21159 333.34375 279.52148 C 335.26638 275.83135 338.45556 269.77266 340.42969 266.05859 C 342.40381 262.34452 344.01953 258.96345 344.01953 258.54492 C 344.01953 258.12636 328.08111 233.50311 308.60156 203.82617 C 289.12202 174.1492 263.0658 134.44527 250.69922 115.5957 C 238.33264 96.746135 221.98639 71.858111 214.37305 60.289062 C 206.75971 48.720017 199.59956 37.836907 198.46289 36.103516 C 197.32623 34.370124 196.11387 32.873308 195.76953 32.777344 C 195.35603 32.662121 186.75063 32.635697 178.2207 32.667969 z M 179.93555 127.01953 C 180.32596 127.01953 185.93304 135.0738 195.96875 150.04883 C 204.45711 162.71495 219.85631 185.63615 230.1875 200.98438 C 244.52093 222.27839 248.87752 229.00253 248.57812 229.36328 C 248.2584 229.74867 236.66504 229.83597 185.94336 229.83008 C 149.89739 229.82687 123.48285 229.6881 123.18555 229.5 C 122.77733 229.2416 124.66495 225.58441 132.39648 211.64453 C 137.74423 202.0026 148.44444 182.6892 156.17578 168.72656 C 178.92207 127.64725 179.27924 127.01953 179.93555 127.01953 z "
         transform="matrix(0.33971092,0,0,0.33971092,-21.638453,45.929256)"
         id="path844" />
      <path
         style="fill:#a32e2b;stroke-width:0.36266607"
         d="M 196.0625 32.900391 L 178.7793 32.994141 L 161.49805 33.089844 L 150.00195 53.216797 C 143.67915 64.287177 128.41231 91.053219 116.07617 112.69531 C 103.74003 134.33741 80.050929 175.84311 63.431641 204.93164 C 46.812356 234.02008 33.214844 258.05372 33.214844 258.33984 C 33.214844 258.62588 33.766759 259.71369 34.443359 260.75781 C 36.046749 263.23215 44.862112 277.39521 48.357422 283.11328 C 49.206245 284.5019 50.156397 285.89468 50.46875 286.20703 C 50.982238 286.72053 64.337257 286.77542 189.82031 286.76953 C 266.1518 286.76659 328.77977 286.64269 328.99219 286.49609 C 329.44972 286.18044 330.88631 283.54179 338.18164 269.61133 C 341.19283 263.86144 343.65625 258.99702 343.65625 258.80273 C 343.65625 257.92631 346.0187 261.55745 284 167.09375 C 257.97419 127.45256 207.5339 50.497738 199.07812 37.529297 L 196.0625 32.900391 z M 180.17188 126.11914 C 180.31496 126.11609 183.56737 130.8044 187.39844 136.53906 C 195.69694 148.96092 231.94491 203.04524 242.20312 218.31055 C 246.75619 225.08595 249.36985 229.29659 249.23633 229.64453 C 249.047 230.13807 242.15968 230.19922 185.89648 230.19922 C 115.60836 230.19922 121.56168 230.43304 123.07031 227.7207 C 123.47731 226.98899 129.14721 216.76072 135.67188 204.99219 C 179.79406 125.40909 179.38462 126.13592 180.17188 126.11914 z "
         transform="matrix(0.33971092,0,0,0.33971092,-21.638453,45.929256)"
         id="path866" />
      <path
         style="fill:#942c28;stroke-width:0.36266607"
         d="M 178.68359 33.115234 C 169.18154 33.105344 161.33095 33.221143 161.23828 33.371094 C 161.10195 33.591678 168.25233 45.139772 173.92773 53.865234 C 174.57644 54.862568 176.28471 57.555747 177.72266 59.849609 C 179.1606 62.143471 183.3021 68.622858 186.92578 74.248047 C 190.54946 79.873233 193.7594 84.924651 194.05859 85.474609 C 194.3578 86.024571 195.45866 87.74612 196.50586 89.298828 C 197.55306 90.851531 198.41016 92.205359 198.41016 92.308594 C 198.41016 92.41184 199.0134 93.351331 199.75 94.396484 C 202.48897 98.282756 203.125 99.317071 203.125 99.884766 C 203.125 100.20491 203.29657 100.4668 203.50781 100.4668 C 203.71908 100.4668 203.77709 100.65643 203.63477 100.88672 C 203.47864 101.13935 203.53374 101.20793 203.77539 101.05859 C 204.2135 100.78783 205.05464 102.04302 204.68359 102.41406 C 204.5576 102.54002 204.63311 102.64453 204.85156 102.64453 C 205.07003 102.64453 205.5117 102.90623 205.83203 103.22656 C 206.26422 103.65873 206.312 103.93235 206.01758 104.28711 C 205.77364 104.58104 205.71956 105.29716 205.87891 106.14648 C 206.06211 107.12303 206.2034 107.34081 206.36133 106.89062 C 206.547 106.36131 206.70156 106.45491 207.27539 107.44141 C 207.65511 108.09419 208.06423 108.70886 208.18359 108.80859 C 208.30295 108.90833 208.69156 109.44777 209.04688 110.00586 C 209.69052 111.0168 209.68872 111.0232 208.54688 112.08984 C 207.91652 112.67869 207.21149 113.16016 206.98047 113.16016 C 206.74945 113.16016 206.15717 113.81346 205.66406 114.61133 C 205.17096 115.40919 204.51765 116.0625 204.21289 116.0625 C 203.90813 116.0625 203.25483 116.71581 202.76172 117.51367 C 202.26861 118.31154 201.61531 118.96289 201.31055 118.96289 C 201.00579 118.96289 200.35444 119.6162 199.86133 120.41406 C 199.36822 121.21193 198.71492 121.86523 198.41016 121.86523 C 198.1054 121.86523 197.45209 122.51854 196.95898 123.31641 C 196.46588 124.11427 195.81257 124.76562 195.50781 124.76562 C 195.20305 124.76562 194.5517 125.41893 194.05859 126.2168 C 193.19238 127.61837 192.60742 128.05659 192.60742 127.30469 C 192.60742 127.10522 192.11793 126.94336 191.51953 126.94336 C 190.55243 126.94336 190.43164 127.06414 190.43164 128.03125 C 190.43164 128.62965 190.5957 129.11914 190.79688 129.11914 C 191.01369 129.11914 190.97748 129.4138 190.70898 129.84375 C 190.45985 130.24268 189.99693 130.56836 189.67969 130.56836 C 189.36244 130.56836 188.87402 131.01788 188.59375 131.56641 C 188.3135 132.11494 187.71614 132.92094 187.26758 133.35742 C 186.55072 134.05494 186.4147 134.08186 186.13281 133.57812 C 185.76862 132.92735 186.0009 131.65625 186.48438 131.65625 C 186.66059 131.65625 186.80469 131.43086 186.80469 131.1543 C 186.80469 130.59905 184.89276 130.18127 184.22852 130.5918 C 183.80475 130.8537 184.46539 132.00827 188.26953 137.64062 C 190.58332 141.0664 194.35546 146.74602 203.20312 160.12695 C 221.38515 187.62498 226.93713 195.96847 237.58789 211.80664 C 243.8252 221.08185 249.00005 229.01249 249.08789 229.43164 L 249.24805 230.19531 L 268.125 230.1582 C 289.38689 230.11684 288.51224 230.23831 286.76953 227.56836 C 286.25396 226.77848 285.48994 225.64139 285.07227 225.04297 C 284.6546 224.44458 283.07627 221.99711 281.56445 219.60352 C 280.05263 217.20992 277.91812 213.86341 276.82031 212.16797 C 274.75174 208.97322 274.22666 208.14908 271.74219 204.18945 C 270.92868 202.89291 269.91617 201.34256 269.49219 200.74414 C 268.39793 199.19974 263.83604 192.08985 263.16211 190.87891 C 262.8516 190.32096 262.28799 189.45764 261.91016 188.95898 C 261.53232 188.46033 259.53501 185.44271 257.4707 182.25391 C 248.78031 168.82964 245.61255 164.09313 240.28906 156.56445 C 238.28917 153.7361 235.51408 149.66129 234.12305 147.50977 C 232.73201 145.35823 230.45095 141.84074 229.05469 139.69141 C 227.65842 137.54207 224.56981 132.77349 222.19141 129.0957 C 219.813 125.41791 217.44745 121.89328 216.93359 121.26172 C 216.41974 120.63016 215.52787 119.32354 214.95117 118.35938 C 213.37583 115.72559 212.49834 114.33786 210.5332 111.36914 C 209.55045 109.88451 208.2099 107.68082 207.55469 106.47266 L 206.36328 104.27539 L 207.73633 105.81445 C 208.49128 106.66065 209.65852 108.08915 210.33008 108.98828 C 211.47172 110.51678 212.19141 111.02881 212.19141 110.31445 C 212.19141 110.14551 211.86573 109.63185 211.4668 109.17188 C 211.06786 108.7119 210.74023 108.14132 210.74023 107.9043 C 210.74023 107.66727 209.84316 106.10087 208.74609 104.42383 C 207.64903 102.74679 206.75195 101.19714 206.75195 100.97852 C 206.75195 100.75989 206.42432 100.28486 206.02539 99.923828 C 205.62646 99.562798 205.30078 99.085264 205.30078 98.863281 C 205.30078 98.641298 204.88132 97.84359 204.36914 97.089844 C 203.85696 96.336097 203.49305 95.554058 203.56055 95.351562 C 203.68895 94.966364 208.03494 101.38937 209.95898 104.80859 C 210.57264 105.89913 212.0856 107.97898 213.32227 109.43164 C 215.50695 111.99789 216.70124 112.6668 217.125 111.5625 C 217.5184 110.53732 215.0256 104.72731 213.56445 103.26367 C 213.20822 102.90684 212.91602 102.18783 212.91602 101.66602 C 212.91602 100.74024 212.93481 100.73448 213.64258 101.375 C 214.04151 101.73603 214.36719 102.17134 214.36719 102.34375 C 214.36719 102.70679 216.55789 105.70511 218.24609 107.65234 C 219.21687 108.77207 219.51295 108.92606 220.06055 108.58984 C 221.10833 107.9465 221.0191 107.26829 219.46484 104.04883 C 217.85301 100.71012 214.77874 95.049358 214.14844 94.259766 C 213.92822 93.983893 213.1493 92.696922 212.41797 91.400391 C 211.37591 89.55299 211.28805 89.278214 212.01367 90.130859 C 212.52292 90.729259 213.4539 92.117779 214.08203 93.214844 C 214.71017 94.311909 215.73869 95.862293 216.36719 96.660156 C 216.99569 97.458023 217.89936 98.762654 218.375 99.560547 C 219.75318 101.87227 223.4389 106.26953 223.99805 106.26953 C 225.55213 106.26953 224.46278 102.22406 221.85352 98.300781 C 221.12691 97.208267 220.5332 96.198408 220.5332 96.056641 C 220.5332 95.914858 219.37513 93.817764 217.96094 91.396484 C 216.54675 88.975208 215.4672 86.917563 215.56055 86.824219 C 215.65388 86.730886 216.67139 88.0895 217.82227 89.84375 C 219.91282 93.030321 222.01355 96.141457 224.38477 99.560547 C 226.1629 102.12446 228.05771 104.09375 228.74414 104.09375 C 230.10074 104.09375 228.00329 98.735644 224.27344 92.669922 C 220.29994 86.207969 219.23948 84.233178 219.56641 83.90625 C 219.65642 83.816235 221.31638 86.159317 223.25586 89.113281 C 229.8201 99.111076 231.51744 101.27152 232.68164 101.11133 C 233.59519 100.98564 233.87016 99.209594 233.10938 98.349609 C 232.81618 98.018181 231.80611 96.279572 230.86328 94.484375 C 229.92046 92.689178 228.94398 90.97498 228.69336 90.675781 C 228.44273 90.37658 227.84653 89.397598 227.36914 88.5 C 226.89175 87.602402 225.77026 85.67627 224.87695 84.220703 C 223.98365 82.765139 223.09009 81.295815 222.89062 80.955078 C 222.69116 80.614338 221.74446 79.052491 220.78711 77.484375 C 219.82976 75.916259 219.11813 74.561555 219.20703 74.472656 C 219.36281 74.316883 220.72433 76.197357 223.17383 79.951172 C 223.81509 80.93391 224.50366 81.98597 224.70312 82.289062 C 224.90259 82.592158 226.92571 85.703719 229.19922 89.205078 C 231.47273 92.706437 233.55455 95.70181 233.82422 95.861328 C 234.0939 96.020837 234.31445 96.35822 234.31445 96.609375 C 234.31445 96.860539 234.53178 97.363302 234.79883 97.728516 C 235.18006 98.2499 235.43191 98.310195 235.96875 98.009766 C 236.42417 97.754902 236.87474 97.746967 237.31836 97.984375 C 237.95856 98.327005 237.96028 98.293267 237.36523 97.136719 C 236.07871 94.636184 230.08414 85.226201 219.38672 68.916016 C 213.30337 59.640832 207.09888 50.174721 205.59961 47.880859 C 204.10034 45.586994 201.31705 41.330457 199.41602 38.421875 L 195.96094 33.134766 L 178.68359 33.115234 z M 204.66992 59.996094 C 204.77586 59.890151 205.11129 60.303231 205.41602 60.914062 C 205.72073 61.524894 205.90405 62.025391 205.82422 62.025391 C 205.53142 62.025391 204.48338 60.182635 204.66992 59.996094 z M 187.62891 60.251953 C 187.65949 60.221368 187.75841 60.300762 187.9375 60.478516 C 188.18535 60.724528 188.2972 61.017252 188.18555 61.128906 C 188.07389 61.240566 187.87058 61.039309 187.73438 60.681641 C 187.63597 60.423202 187.59832 60.282538 187.62891 60.251953 z M 210.81055 60.964844 C 210.83939 60.935998 210.99725 61.083574 211.31055 61.382812 C 211.67105 61.727132 211.86767 62.106942 211.74609 62.228516 C 211.62453 62.350081 211.32878 62.069397 211.08984 61.603516 C 210.8822 61.19862 210.7817 60.99369 210.81055 60.964844 z M 212.77734 63.816406 C 212.99928 63.86918 213.34005 64.227857 213.57617 64.746094 C 213.80337 65.244759 213.93565 65.652344 213.87109 65.652344 C 213.66101 65.652344 212.55469 64.332303 212.55469 64.082031 C 212.55469 63.863027 212.64418 63.784742 212.77734 63.816406 z M 189.86133 63.837891 C 189.96106 63.837891 190.21814 64.16552 190.43164 64.564453 C 190.64527 64.963386 190.7384 65.289062 190.63867 65.289062 C 190.53894 65.289062 190.28186 64.963386 190.06836 64.564453 C 189.85474 64.16552 189.7616 63.837891 189.86133 63.837891 z M 207.19531 64.248047 C 207.20715 64.224476 207.35422 64.397902 207.64648 64.746094 C 207.98134 65.145027 208.41165 65.756401 208.60352 66.105469 C 208.79527 66.454539 208.87429 66.740234 208.7793 66.740234 C 208.60562 66.740234 208.50481 66.58946 207.55469 64.925781 C 207.30613 64.490544 207.18348 64.271618 207.19531 64.248047 z M 201.79102 64.638672 C 201.86578 64.648147 201.97341 64.717531 202.10352 64.847656 C 202.33972 65.083692 202.44876 65.361786 202.3457 65.464844 C 202.10366 65.706885 201.67383 65.277048 201.67383 64.792969 C 201.67383 64.679343 201.71626 64.629197 201.79102 64.638672 z M 210.09961 68.710938 C 210.16069 68.649859 210.48427 69.078538 210.82031 69.664062 C 211.15637 70.249581 211.3027 70.728516 211.14453 70.728516 C 210.84652 70.728516 209.9033 68.907251 210.09961 68.710938 z M 204.69141 69.353516 C 204.76617 69.362994 204.8738 69.432389 205.00391 69.5625 C 205.24011 69.798536 205.34915 70.076629 205.24609 70.179688 C 205.00406 70.421729 204.57617 69.991892 204.57617 69.507812 C 204.57617 69.394186 204.61665 69.344037 204.69141 69.353516 z M 194.03711 70.367188 C 194.24836 70.367188 194.41992 70.529052 194.41992 70.728516 C 194.41992 70.927982 194.34772 71.091797 194.25977 71.091797 C 194.17181 71.091797 194.00023 70.927979 193.87695 70.728516 C 193.75367 70.529046 193.82587 70.367188 194.03711 70.367188 z M 217.69141 71.998047 C 217.77877 71.910673 218.13647 72.323753 218.48633 72.916016 C 218.83621 73.508275 219.0361 73.994141 218.92969 73.994141 C 218.63548 73.994141 217.50984 72.179613 217.69141 71.998047 z M 212.375 72.298828 C 212.46969 72.322104 212.59109 72.478132 212.67969 72.708984 C 212.92492 73.348048 212.71503 73.459478 212.35742 72.880859 C 212.22596 72.668123 212.19596 72.417317 212.29102 72.322266 C 212.31478 72.298499 212.34344 72.29107 212.375 72.298828 z M 196.09961 73.738281 C 196.22731 73.794746 196.42186 74.030643 196.5957 74.355469 C 197.14379 75.379575 196.88955 75.633812 196.28516 74.666016 C 196.02956 74.256732 195.90064 73.8435 195.99805 73.746094 C 196.0224 73.721746 196.05704 73.71946 196.09961 73.738281 z M 213.10547 73.769531 C 213.28074 73.673381 214.03928 74.531341 214.54297 75.541016 C 214.84716 76.150805 215.04342 76.70267 214.97852 76.767578 C 214.81353 76.932571 213.46584 75.045029 213.15625 74.214844 C 213.05426 73.941344 213.04704 73.801581 213.10547 73.769531 z M 201.74414 74.019531 C 201.77299 73.990685 201.93084 74.13826 202.24414 74.4375 C 202.60464 74.781819 202.80126 75.163582 202.67969 75.285156 C 202.55812 75.406721 202.26238 75.124085 202.02344 74.658203 C 201.8158 74.253306 201.71529 74.048377 201.74414 74.019531 z M 207.90039 74.537109 C 207.98776 74.449738 208.34546 74.862813 208.69531 75.455078 C 209.04519 76.047335 209.24313 76.53125 209.13672 76.53125 C 208.84252 76.53125 207.71882 74.718676 207.90039 74.537109 z M 205.03516 79.111328 C 205.06574 79.080743 205.16661 79.158185 205.3457 79.335938 C 205.59356 79.58195 205.7054 79.874674 205.59375 79.986328 C 205.48209 80.097988 205.27878 79.896731 205.14258 79.539062 C 205.04417 79.280625 205.00457 79.141913 205.03516 79.111328 z M 210.85742 79.144531 C 210.93218 79.15401 211.0398 79.225358 211.16992 79.355469 C 211.40612 79.591508 211.51517 79.867645 211.41211 79.970703 C 211.17007 80.212744 210.74023 79.78486 210.74023 79.300781 C 210.74023 79.187155 210.78266 79.135053 210.85742 79.144531 z M 216.6543 79.349609 C 216.9252 79.230125 218.20276 81.042797 218.78906 82.425781 C 218.93716 82.774852 219.01434 83.060547 218.96094 83.060547 C 218.71048 83.060547 217.99414 82.149869 217.99414 81.832031 C 217.99414 81.635449 217.65078 81.107557 217.23047 80.660156 C 216.81015 80.212761 216.53311 79.646777 216.61523 79.400391 C 216.62385 79.374554 216.63624 79.357575 216.6543 79.349609 z M 194.53906 80.644531 C 194.64352 80.540069 194.99951 80.973905 195.32812 81.609375 C 196.10432 83.110381 195.84565 83.367108 195 81.935547 C 194.64199 81.329473 194.43459 80.749002 194.53906 80.644531 z M 212.05469 80.994141 C 212.18392 81.04908 212.38085 81.284552 212.55469 81.609375 C 212.78653 82.042476 212.89465 82.478393 212.79492 82.578125 C 212.69519 82.67786 212.42319 82.405754 212.19141 81.972656 C 211.95956 81.539556 211.85144 81.103638 211.95117 81.003906 C 211.9761 80.978973 212.01161 80.975827 212.05469 80.994141 z M 206.64258 81.302734 C 206.74335 81.330875 206.87194 81.501643 206.96875 81.753906 C 207.09783 82.090257 207.12122 82.447143 207.02148 82.546875 C 206.92175 82.646607 206.73455 82.453538 206.60547 82.117188 C 206.47639 81.780837 206.453 81.423951 206.55273 81.324219 C 206.57767 81.299285 206.60899 81.293354 206.64258 81.302734 z M 213.22656 83.240234 L 213.97852 84.097656 C 214.39198 84.568557 214.73047 85.098034 214.73047 85.275391 C 214.73047 85.824037 214.54761 85.642185 213.875 84.419922 L 213.22656 83.240234 z M 202.06641 83.765625 C 202.15538 83.718164 202.75375 84.387035 203.47852 85.460938 C 204.10041 86.382412 204.54301 87.203086 204.46094 87.285156 C 204.37886 87.367235 204.04302 87.020513 203.7168 86.515625 C 203.39058 86.010731 202.8612 85.190071 202.53906 84.691406 C 202.14368 84.079358 202.01302 83.794102 202.06641 83.765625 z M 207.97852 83.949219 C 208.17684 84.033935 208.72056 84.71172 209.28906 85.597656 C 209.93878 86.610155 210.38021 87.529943 210.26953 87.640625 C 210.15885 87.75131 209.79304 87.295708 209.45508 86.628906 C 209.11712 85.962107 208.58842 85.129586 208.28125 84.779297 C 207.97409 84.429008 207.80993 84.057262 207.91602 83.951172 C 207.92928 83.93791 207.95018 83.937116 207.97852 83.949219 z M 196.75195 84.148438 C 196.85168 84.148438 197.10876 84.474114 197.32227 84.873047 C 197.53589 85.271977 197.62903 85.597656 197.5293 85.597656 C 197.42957 85.597656 197.17249 85.271977 196.95898 84.873047 C 196.74536 84.474114 196.65222 84.148438 196.75195 84.148438 z M 198.20312 86.324219 C 198.30286 86.324219 198.55993 86.649898 198.77344 87.048828 C 198.98706 87.447761 199.07825 87.775391 198.97852 87.775391 C 198.87878 87.775391 198.62366 87.447761 198.41016 87.048828 C 198.19653 86.649898 198.10339 86.324219 198.20312 86.324219 z M 199.54883 88.904297 C 199.77807 88.774715 200.75234 90.005275 201.67969 91.648438 C 202.30106 92.749444 202.7214 93.739535 202.61328 93.847656 C 202.50516 93.955778 202.29928 93.735037 202.15625 93.357422 C 202.01321 92.979807 201.35679 91.917515 200.69727 90.996094 C 200.03775 90.074672 199.49805 89.197062 199.49805 89.046875 C 199.49805 88.97012 199.51608 88.922809 199.54883 88.904297 z M 205.78711 89.707031 C 205.88684 89.607299 206.24769 89.952412 206.58984 90.474609 C 206.932 90.996806 207.13098 91.505737 207.03125 91.605469 C 206.93152 91.705201 206.56872 91.360091 206.22656 90.837891 C 205.8844 90.315697 205.68738 89.806763 205.78711 89.707031 z M 207.9707 93.136719 C 208.36446 93.259124 210.74023 96.572772 210.74023 97.054688 C 210.74023 97.178563 211.14782 97.764789 211.64648 98.357422 C 212.14515 98.950049 212.55469 99.667283 212.55469 99.951172 C 212.55469 100.89998 211.79689 100.48214 211.28125 99.248047 C 211.0009 98.577073 210.10101 97.01737 209.28125 95.783203 C 208.46149 94.549039 207.8496 93.367194 207.91992 93.15625 C 207.92725 93.134253 207.94445 93.128558 207.9707 93.136719 z M 160.39648 97.6875 C 159.78636 97.779856 159.17213 98.627242 158.125 100.50195 C 157.41112 101.78004 153.75791 108.04676 150.00586 114.42969 C 141.69897 128.56121 138.20703 134.62016 138.20703 134.90234 C 138.20703 135.0197 137.81217 135.69783 137.32812 136.41016 C 136.36316 137.83023 135.89323 138.62832 132.56055 144.53125 C 131.32178 146.72538 129.64114 149.58237 128.82422 150.87891 C 128.0073 152.17544 127.1024 153.72582 126.81445 154.32422 C 126.52651 154.92262 125.55906 156.63486 124.66406 158.13086 C 123.76907 159.62682 122.11038 162.56576 120.97852 164.66016 C 119.84665 166.75455 118.70919 168.71252 118.45117 169.01172 C 118.19315 169.31091 117.6509 170.208 117.24609 171.00586 C 116.84129 171.80374 116.16431 172.82464 115.74023 173.27344 C 115.31617 173.72223 115.05956 174.08984 115.16992 174.08984 C 115.67826 174.08984 110.91348 182.25591 109.57227 183.68359 C 109.09554 184.19105 108.82881 184.60547 108.98047 184.60547 C 109.54439 184.60547 101.85313 197.68707 99.816406 200.19141 C 98.369505 201.97048 96.307229 205.26107 95.964844 206.33984 C 95.84518 206.71687 95.482764 207.24443 95.158203 207.51172 C 94.628927 207.94768 94.59595 207.88599 94.837891 206.91016 C 94.986249 206.31177 95.330519 205.57462 95.603516 205.27148 C 95.876509 204.96837 96.618014 203.49988 97.251953 202.00781 C 97.885892 200.51572 98.629975 198.97158 98.904297 198.57812 C 99.575953 197.61466 99.556691 195.84961 98.875 195.84961 C 97.180336 195.84961 94.800218 198.5288 91.785156 203.82812 C 90.934004 205.32413 89.952468 206.87451 89.605469 207.27344 C 89.25847 207.67239 88.690444 208.60943 88.34375 209.35742 C 87.997059 210.10544 87.559323 210.71875 87.369141 210.71875 C 86.872981 210.71875 87.396902 209.2187 88.201172 208.33789 C 88.577177 207.9261 88.884766 207.34709 88.884766 207.05078 C 88.884766 206.75447 89.033604 206.35559 89.214844 206.16602 C 89.396086 205.97653 90.350422 204.18998 91.335938 202.19531 C 94.692318 195.40207 94.946812 194.2168 93.054688 194.2168 C 92.141724 194.2168 91.748941 194.53719 90.613281 196.21094 C 89.36076 198.05695 86.402649 202.80992 85.984375 203.64648 C 85.884642 203.84595 85.207128 204.92357 84.480469 206.04102 C 83.350321 207.77893 81.794815 210.44064 79.455078 214.64062 C 77.384233 218.35796 75.352081 221.60612 75.195312 221.44922 C 75.093153 221.34704 75.520174 220.46994 76.142578 219.5 C 76.764978 218.53009 77.928054 216.44217 78.728516 214.86133 C 79.528974 213.28045 80.673252 211.17115 81.271484 210.17383 C 81.869717 209.17648 82.869811 207.30042 83.494141 206.00391 C 84.118474 204.70736 85.445297 202.19961 86.441406 200.43164 C 88.014913 197.63882 89.207558 195.00546 89.855469 192.89258 C 90.105541 192.07706 88.782901 191.69153 87.802734 192.29492 C 87.131943 192.70786 85.082818 195.61695 81.085938 201.83203 C 80.444559 202.82935 78.79643 205.60138 77.421875 207.99023 C 76.04732 210.37912 74.75806 212.60998 74.558594 212.94727 C 73.951832 213.97326 72.043511 217.26196 70.214844 220.43359 C 69.261641 222.08685 68.39943 223.35439 68.296875 223.25195 C 68.194317 223.1494 68.277729 222.85756 68.484375 222.60352 C 68.691022 222.34936 69.629464 220.67408 70.568359 218.87891 C 71.507258 217.0837 72.743162 214.79813 73.316406 213.80078 C 74.591551 211.58231 75.529729 209.86837 77.617188 205.94336 C 78.501425 204.28074 79.671434 202.10474 80.216797 201.10742 C 81.977265 197.88798 85.257812 191.182 85.257812 190.80273 C 85.257812 190.60012 84.932136 190.26029 84.533203 190.04688 C 83.636892 189.56717 82.594454 190.05377 81.921875 191.26562 C 81.662427 191.73308 80.797865 193.1365 80 194.38477 C 79.202135 195.63303 77.622815 198.14558 76.490234 199.96875 C 75.357657 201.79192 74.025196 203.93652 73.529297 204.73438 C 72.697439 206.07278 71.023256 208.9445 69.154297 212.24219 C 65.570242 218.56612 61.304861 225.58789 61.046875 225.58789 C 60.915844 225.58789 62.282127 222.99864 64.585938 218.87891 C 67.628358 213.43837 71.476562 206.39338 71.476562 206.26562 C 71.476563 206.17858 72.263113 204.73867 73.224609 203.06445 C 74.935744 200.08492 78.199869 194.08216 79.550781 191.43164 C 80.368031 189.82816 80.279294 187.74709 79.386719 187.57812 C 78.210665 187.35547 76.472475 189.83645 69.402344 201.83203 C 62.206099 214.04159 61.499428 215.26107 61.236328 215.9043 C 61.089488 216.26328 60.505992 217.24225 59.939453 218.08008 C 59.372911 218.91788 58.054483 221.10999 57.009766 222.95117 C 55.965048 224.79235 54.925358 226.41291 54.699219 226.55273 C 54.473082 226.6925 54.828537 225.85066 55.488281 224.68164 C 56.148025 223.51265 57.429446 221.15681 58.335938 219.44727 C 59.242425 217.73772 60.913374 214.70756 62.050781 212.71289 C 69.949383 198.8612 75.935428 187.18117 75.761719 185.95898 C 75.698546 185.51452 75.489125 185.16786 75.294922 185.19141 C 75.100718 185.21395 73.893844 186.92815 72.613281 189 C 68.283346 196.00543 33.035156 257.95781 33.035156 258.5625 C 33.035156 258.89249 33.517129 259.72738 34.107422 260.41797 C 34.697718 261.10859 35.187217 261.84451 35.195312 262.05469 C 35.22851 262.91583 37.432922 265.90281 37.902344 265.72266 C 38.234958 265.59502 38.337136 265.74846 38.21875 266.20117 C 38.026942 266.93465 39.517094 269.71305 40.654297 270.74219 C 41.051449 271.10161 41.375 271.61804 41.375 271.89062 C 41.375 272.36741 43.099155 275.256 43.613281 275.64062 C 43.750844 275.74354 44.372183 276.80444 44.994141 277.99805 C 45.616099 279.19168 46.332616 280.33167 46.585938 280.53125 C 46.83926 280.73071 47.429211 281.66446 47.896484 282.60547 C 48.363758 283.54645 49.219979 284.89306 49.800781 285.59766 L 50.857422 286.87891 L 189.64258 286.87305 C 265.97379 286.8701 328.60008 286.7462 328.8125 286.59961 C 329.02491 286.45307 329.94795 284.94742 330.86328 283.25195 C 334.51809 276.48217 343.47656 259.24304 343.47656 258.98047 C 343.47656 258.261 315.00878 258.11641 221.47656 258.36133 L 203.37891 258.4082 L 203.24219 257.51758 C 203.16696 257.02754 202.92803 256.51704 202.71094 256.38281 C 201.9854 255.9344 195.07596 255.58748 182.45312 255.36523 L 169.94141 255.14453 L 181.9082 254.86523 C 193.71182 254.58971 201.27745 254.15983 202.46289 253.69531 C 203.17968 253.41443 203.54114 252.62533 203.27344 251.92773 C 202.88472 250.91476 198.94876 250.5794 184.99219 250.37305 C 177.31273 250.25939 170.96005 250.10447 170.87695 250.02734 C 170.79384 249.95022 173.58694 249.88672 177.08398 249.88672 C 183.38769 249.88672 196.58215 249.31242 200.76758 248.85547 L 202.94336 248.61719 L 202.94336 247.34766 L 202.94336 246.07812 L 200.58594 245.79102 C 199.28941 245.63273 192.43457 245.37458 185.35352 245.2168 C 178.27246 245.05907 174.35653 244.90026 176.65039 244.86523 C 185.65072 244.72774 199.05823 244.07769 201.01758 243.68359 C 203.63836 243.15644 204.0888 242.25386 202.21875 241.27344 C 200.55249 240.39987 198.37225 240.28167 181.93945 240.17188 C 175.57316 240.12949 170.43252 240.03298 170.51562 239.95703 C 170.59874 239.88103 175.15335 239.71233 180.63867 239.58398 C 200.0768 239.1293 203.34145 238.70744 203.05273 236.68555 C 202.89462 235.57825 201.24189 235.41953 186.80469 235.11719 C 174.17775 234.85276 173.83098 234.47579 186.08008 234.33008 C 193.68579 234.23953 202.45533 233.65599 202.90039 233.21094 C 203.10036 233.01097 203.29637 232.3783 203.33594 231.80664 L 203.4082 230.76758 L 200.12695 230.53516 C 198.32294 230.40711 180.06321 230.30273 159.54883 230.30273 C 123.51725 230.30273 122.25 230.2801 122.25 229.63281 C 122.25 229.00825 127.70243 219.09409 164.79102 152.28906 C 179.25678 126.23289 179.98776 125.07612 181.47461 125.9082 C 181.79248 126.08609 182.49833 127.05205 183.04297 128.05273 C 183.77444 129.3967 184.18283 129.8075 184.60352 129.62891 C 184.91675 129.49593 185.53948 129.30828 185.98828 129.21094 C 186.43708 129.1136 186.80469 128.80305 186.80469 128.52148 C 186.80469 128.12597 186.44435 128.05841 185.21875 128.22461 C 183.67709 128.43369 183.63691 128.41523 183.80664 127.52734 C 183.94938 126.78066 183.81121 126.57025 183.04883 126.37891 C 182.53582 126.25015 182.02293 125.8534 181.91016 125.49805 C 181.79738 125.1427 181.23681 124.75907 180.66406 124.64453 C 179.8743 124.48658 179.3442 123.95054 178.4707 122.42383 C 177.83724 121.31665 177.02279 120.25072 176.66016 120.05664 C 176.29752 119.86256 175.84364 119.25196 175.65039 118.69922 C 175.45714 118.14648 174.7058 116.91794 173.98047 115.96875 C 173.25514 115.01956 172.66016 114.17005 172.66016 114.08203 C 172.66016 113.72833 170.40997 110.61466 169.9668 110.35547 C 169.70551 110.20265 169.15405 109.41192 168.74219 108.59766 C 168.33032 107.78339 167.57058 106.7225 167.05469 106.24023 C 166.5388 105.75797 165.81064 104.68612 165.43555 103.85742 C 165.06046 103.02872 164.24694 101.90028 163.62891 101.34961 C 163.01087 100.79894 162.50586 100.07728 162.50586 99.746094 C 162.50586 99.4149 162.09162 98.754237 161.58398 98.277344 C 161.12877 97.849695 160.76256 97.632086 160.39648 97.6875 z M 204.66797 107.10352 C 204.29118 107.07385 204.00898 107.38976 203.91602 108.02148 C 203.83905 108.54453 203.99112 108.80859 204.36914 108.80859 C 204.6822 108.80859 204.9375 108.97241 204.9375 109.17188 C 204.9375 109.37134 204.77564 109.53516 204.57617 109.53516 C 204.37671 109.53516 204.21289 109.79863 204.21289 110.12109 C 204.21289 110.5289 203.99077 110.64948 203.48633 110.51758 C 203.04268 110.40157 202.76172 110.5059 202.76172 110.78711 C 202.76172 111.80966 204.54572 110.90021 205.27148 109.50781 C 205.93593 108.23304 205.95048 108.05985 205.42773 107.53711 C 205.15427 107.26364 204.89404 107.12132 204.66797 107.10352 z M 207.30859 109.56836 C 207.14663 109.56068 206.93466 109.5751 206.66016 109.60156 C 205.67803 109.69626 205.4628 109.88186 205.36719 110.71289 C 205.26098 111.63589 205.34787 111.71094 206.54492 111.71094 C 207.74621 111.71094 207.83984 111.63146 207.83984 110.59961 C 207.83984 109.82339 207.7945 109.59141 207.30859 109.56836 z M 183.72266 123.67773 C 183.42345 123.67773 183.17773 123.84155 183.17773 124.04102 C 183.17773 124.24049 183.42346 124.4043 183.72266 124.4043 C 184.02186 124.4043 184.26562 124.24048 184.26562 124.04102 C 184.26563 123.84155 184.02185 123.67773 183.72266 123.67773 z M 186.1543 124.04102 C 185.77786 124.04102 184.98882 127.00784 185.25195 127.43359 C 185.36348 127.61407 185.60445 127.49436 185.78711 127.16797 C 185.96976 126.84157 186.01879 126.41272 185.89648 126.21484 C 185.77417 126.01695 185.84736 125.85547 186.05859 125.85547 C 186.26984 125.85547 186.44141 125.44593 186.44141 124.94727 C 186.44141 124.4486 186.31255 124.04102 186.1543 124.04102 z M 194.41992 142.17383 C 194.61939 142.17383 194.7832 142.33765 194.7832 142.53711 C 194.7832 142.73658 194.61939 142.90039 194.41992 142.90039 C 194.22045 142.90039 194.05859 142.73657 194.05859 142.53711 C 194.05859 142.33764 194.22046 142.17383 194.41992 142.17383 z M 93.962891 208.9043 C 94.188697 208.9043 94.114716 209.34732 93.78125 209.99219 C 93.282258 210.95718 92.875 211.3768 92.875 210.92383 C 92.875 210.34322 93.649795 208.9043 93.962891 208.9043 z M 86.943359 211.18359 C 86.988657 211.21399 86.944094 211.36889 86.835938 211.66406 C 86.697693 212.04132 86.108884 213.20669 85.525391 214.25391 C 84.530275 216.03981 84.169922 216.48297 84.169922 215.92188 C 84.169922 215.36358 85.999476 211.88277 86.519531 211.45117 C 86.764541 211.24784 86.898062 211.1532 86.943359 211.18359 z M 92.439453 211.4668 C 92.49026 211.47664 92.50346 211.61076 92.505859 211.875 C 92.508913 212.21232 92.347904 212.58955 92.148438 212.71289 C 91.689448 212.99654 91.689448 212.51689 92.148438 211.80664 C 92.299923 211.57219 92.388646 211.45695 92.439453 211.4668 z M 90.947266 214.47266 C 91.021503 214.5469 90.663293 215.43975 90.152344 216.45703 C 89.249842 218.254 88.521484 219.11115 88.521484 218.37891 C 88.521484 217.91398 90.769264 214.29456 90.947266 214.47266 z M 83.222656 217.73242 C 83.352706 217.70734 83.445312 217.77805 83.445312 217.92773 C 83.445312 218.1272 83.281498 218.39228 83.082031 218.51562 C 82.882566 218.63867 82.71875 218.57653 82.71875 218.37695 C 82.71875 218.17749 82.882565 217.9124 83.082031 217.78906 C 83.131898 217.7583 83.179306 217.74078 83.222656 217.73242 z M 80.859375 221.99023 C 80.882412 222.03372 80.786974 222.22574 80.589844 222.5957 C 80.140169 223.43963 79.818359 223.64772 79.818359 223.09375 C 79.818359 222.91872 80.090018 222.55111 80.421875 222.27734 C 80.695435 222.05167 80.836338 221.94675 80.859375 221.99023 z M 74.519531 222.44727 C 74.649581 222.42218 74.740234 222.49289 74.740234 222.64258 C 74.740234 222.84204 74.578373 223.10713 74.378906 223.23047 C 74.179441 223.35351 74.015625 223.29138 74.015625 223.0918 C 74.015625 222.8923 74.17944 222.62725 74.378906 222.50391 C 74.428773 222.47314 74.476181 222.45563 74.519531 222.44727 z M 86.125 222.80859 C 86.25505 222.78351 86.345703 222.85617 86.345703 223.00586 C 86.345703 223.20532 86.183842 223.47041 85.984375 223.59375 C 85.78491 223.7168 85.621094 223.65466 85.621094 223.45508 C 85.621094 223.25561 85.784908 222.99053 85.984375 222.86719 C 86.034241 222.83643 86.08165 222.81696 86.125 222.80859 z M 60.359375 226.84766 C 60.385322 227.1747 57.339865 232.88191 56.732422 233.5957 C 56.464433 233.91062 56.244141 234.34836 56.244141 234.57031 L 56.244141 234.57227 C 56.244141 234.7941 56.082279 235.07588 55.882812 235.19922 C 55.683347 235.32109 55.519531 235.32954 55.519531 235.2168 C 55.519531 234.88422 59.894741 227.25364 60.3125 226.85742 C 60.343168 226.82833 60.357645 226.82585 60.359375 226.84766 z M 65.453125 228.25 C 65.583175 228.22491 65.673828 228.29563 65.673828 228.44531 C 65.673828 228.64478 65.510013 228.90986 65.310547 229.0332 C 65.11108 229.15625 64.949219 229.09411 64.949219 228.89453 C 64.949219 228.69507 65.111081 228.42998 65.310547 228.30664 C 65.360413 228.27588 65.409775 228.25836 65.453125 228.25 z M 53.074219 229.33789 C 53.262497 229.22153 52.787672 230.26054 52.019531 231.64648 C 50.450297 234.4778 49.401453 236.06126 49.373047 235.64258 C 49.345905 235.24259 52.663173 229.59193 53.074219 229.33789 z M 63.341797 232.11523 C 63.46073 232.11523 63.190074 232.72662 62.740234 233.47461 C 61.724643 235.16334 61.683734 235.2133 61.685547 234.80469 C 61.687367 234.35819 63.068909 232.11523 63.341797 232.11523 z M 49.1875 236.10547 C 49.287233 236.10547 49.035948 236.75683 48.628906 237.55469 C 48.221865 238.35254 47.806766 239.00586 47.707031 239.00586 C 47.607298 239.00586 47.858583 238.35254 48.265625 237.55469 C 48.672667 236.75683 49.087768 236.10547 49.1875 236.10547 z M 47.378906 239.36914 C 47.47864 239.36914 47.305538 239.85864 46.996094 240.45703 C 46.686649 241.05542 46.351685 241.54492 46.251953 241.54492 C 46.15222 241.54492 46.325321 241.05542 46.634766 240.45703 C 46.94421 239.85864 47.279174 239.36914 47.378906 239.36914 z M 45.849609 242.04492 C 45.947349 242.04738 45.957253 242.19281 45.865234 242.43359 C 45.624353 243.06023 45.365234 243.17542 45.365234 242.6543 C 45.365234 242.46661 45.525474 242.21367 45.722656 242.0918 C 45.774051 242.06003 45.816935 242.0441 45.849609 242.04492 z M 44.798828 243.86133 C 44.847308 243.84473 44.889531 243.84851 44.919922 243.87891 C 45.041488 244.00048 44.844869 244.38227 44.484375 244.72656 C 43.85778 245.32498 43.848376 245.31564 44.263672 244.50586 C 44.442865 244.15644 44.653388 243.91111 44.798828 243.86133 z M 42.669922 247.71094 C 42.769654 247.71094 42.676393 248.03662 42.462891 248.43555 C 42.249391 248.83447 41.994263 249.16016 41.894531 249.16016 C 41.794797 249.16016 41.88806 248.83447 42.101562 248.43555 C 42.315065 248.03662 42.57019 247.71094 42.669922 247.71094 z M 48.177734 248.19141 C 48.34727 248.108 48.203036 248.59319 47.712891 249.54102 C 47.177784 250.57569 46.813414 250.90188 46.818359 250.33984 C 46.819672 250.19025 47.144712 249.57886 47.541016 248.98047 C 47.861194 248.49701 48.076013 248.24145 48.177734 248.19141 z M 39.886719 252.50781 C 39.904571 252.52353 39.914062 252.55557 39.914062 252.60547 C 39.914062 252.80493 39.755859 253.21448 39.5625 253.51367 C 39.369143 253.81275 39.210938 253.89294 39.210938 253.69336 C 39.210937 253.4939 39.369141 253.0863 39.5625 252.78711 C 39.707518 252.5628 39.833161 252.46065 39.886719 252.50781 z M 37.943359 255.83398 C 37.980201 255.82521 38.013101 255.83344 38.041016 255.86133 C 38.152676 255.97298 38.040821 256.26563 37.792969 256.51172 C 37.434794 256.86714 37.394982 256.82547 37.591797 256.30859 C 37.693941 256.04046 37.832834 255.86031 37.943359 255.83398 z M 48.40625 257.98828 C 48.5363 257.9632 48.628906 258.03586 48.628906 258.18555 C 48.628906 258.38501 48.465092 258.64814 48.265625 258.77148 C 48.06616 258.89453 47.904297 258.83239 47.904297 258.63281 C 47.904297 258.43335 48.066158 258.17022 48.265625 258.04688 C 48.315491 258.01611 48.3629 257.99664 48.40625 257.98828 z "
         transform="matrix(0.33971092,0,0,0.33971092,-21.638453,45.929256)"
         id="path838" />
      <path
         style="fill:#732522;stroke-width:0.36266607"
         d="M 173.72656 32.894531 C 173.17304 32.902926 172.71437 33.005361 172.58008 33.222656 C 172.47368 33.394809 173.09341 34.659494 173.95703 36.033203 C 175.81816 38.993588 182.2944 49.422282 187.7832 58.296875 C 196.05503 71.671193 206.85644 88.412913 210.18555 93.021484 C 211.37428 94.667084 212.48981 96.013672 212.66602 96.013672 C 213.2462 96.013672 213.0017 94.198815 212.21094 92.644531 C 210.98558 90.236036 206.40236 82.418333 200.89844 73.347656 C 198.11469 68.759929 195.39895 64.270645 194.86328 63.373047 C 194.32761 62.475448 192.41459 59.374684 190.61328 56.482422 C 188.81197 53.590163 184.96913 47.388631 182.07422 42.701172 C 179.17931 38.013713 176.54684 33.893989 176.22266 33.544922 C 175.83624 33.128859 174.6491 32.88054 173.72656 32.894531 z M 184.98438 32.896484 C 184.40866 32.920501 183.97461 33.047268 183.97461 33.296875 C 183.97461 33.724706 185.98795 37.052553 195.04297 51.587891 C 207.80223 72.069364 218.44594 88.470867 220.16797 90.304688 C 221.32756 91.539564 221.80942 91.161898 221.22266 89.480469 C 220.26842 86.746017 213.41232 74.997564 201.43555 55.576172 C 197.74534 49.592184 193.26906 42.329762 191.48828 39.4375 C 189.7075 36.545238 187.99687 33.893989 187.6875 33.544922 C 187.29564 33.102789 185.9439 32.856456 184.98438 32.896484 z M 168.52539 32.910156 C 167.67048 32.910156 166.89325 33.037403 166.79688 33.193359 C 166.7005 33.349307 167.48823 34.859713 168.54883 36.548828 C 169.60943 38.237944 174.27714 45.738761 178.91992 53.21875 C 193.52113 76.742736 205.04877 94.680246 207.51562 97.710938 C 208.54136 98.97113 209.63383 99.377982 209.04688 98.28125 C 208.68961 97.613706 208.63477 97.396566 208.63477 96.630859 C 208.63477 95.555993 196.19441 74.645452 181.62109 51.224609 C 178.26998 45.839019 174.54702 39.801304 173.34766 37.806641 C 170.44384 32.977293 170.37801 32.910156 168.52539 32.910156 z M 191.46484 32.910156 C 190.60253 32.910156 189.80065 33.00794 189.68164 33.126953 C 189.56262 33.245972 190.12711 34.428752 190.9375 35.755859 C 193.02119 39.168125 200.41517 51.067057 202.46484 54.306641 C 211.96843 69.327427 214.43572 73.171269 218.39453 79.119141 C 220.90548 82.891698 223.26148 86.440025 223.62891 87.005859 C 223.99633 87.571696 224.52581 88.035156 224.80664 88.035156 C 226.39477 88.035156 224.74385 84.782249 214.50195 67.726562 C 207.95369 56.821823 197.17302 39.284563 194.26953 34.814453 C 193.09221 33.001886 192.9574 32.910156 191.46484 32.910156 z M 163.22656 32.923828 C 162.69082 32.925519 162.19089 33.01602 162.08008 33.195312 C 161.98306 33.35229 162.68338 34.698881 163.63672 36.1875 C 164.59006 37.676119 169.74538 45.747415 175.0918 54.125 C 182.614 65.911939 198.29934 89.802436 200.82422 93.316406 C 201.01663 93.584181 201.24117 93.737348 201.32227 93.65625 C 201.66991 93.30861 191.59962 76.453556 177.26953 53.400391 C 169.29918 40.578283 166.63343 36.267084 165.71875 34.722656 C 165.30529 34.024524 164.79627 33.334036 164.58789 33.1875 C 164.33458 33.009393 163.76231 32.922137 163.22656 32.923828 z M 179.68945 32.923828 C 178.89317 32.940946 178.17188 33.057497 178.17188 33.261719 C 178.17187 33.73828 196.87705 63.892063 204.38867 75.523438 C 211.49644 86.529472 213.8231 89.990429 215.66211 92.296875 C 217.97427 95.196746 218.54359 95.318496 217.63867 92.722656 C 216.92426 90.673284 206.86442 73.530237 197.75586 58.839844 C 196.02439 56.047314 191.78139 49.192479 188.32812 43.607422 C 184.87486 38.022364 181.87132 33.334036 181.65234 33.1875 C 181.35667 32.989635 180.48574 32.90671 179.68945 32.923828 z M 196.05664 32.978516 C 195.88948 32.953482 195.69153 33.013545 195.56055 33.144531 C 195.04618 33.658895 218.22009 70.647146 225.86133 81.507812 C 226.77353 82.804344 227.79874 84.312104 228.14062 84.859375 C 228.48251 85.406646 229.04937 85.856333 229.39844 85.857422 C 230.16154 85.860177 230.20399 85.384541 229.53711 84.304688 C 224.73745 76.532788 219.96381 69.053349 213.75 59.566406 C 209.56928 53.183485 203.98568 44.648458 201.34375 40.599609 C 198.70182 36.550761 196.39117 33.145799 196.20898 33.033203 C 196.16344 33.005054 196.11236 32.98686 196.05664 32.978516 z M 160.92969 98.201172 C 160.75196 98.177247 160.58395 98.231223 160.44141 98.378906 C 159.57645 99.27508 135.43438 141.11107 121.40039 166.0332 C 113.02617 180.90449 111.85984 182.90486 97.853516 206.44531 C 93.224983 214.22451 88.534778 222.14022 87.429688 224.03516 C 83.122945 231.42008 78.717687 239.04815 74.447266 246.51953 C 70.680565 253.10963 64.447601 263.86543 60.259766 271 C 59.674354 271.99732 57.440005 275.8333 55.294922 279.52344 L 51.394531 286.23242 L 165.46484 286.41406 C 228.20384 286.51415 290.63355 286.63347 304.19727 286.67969 C 317.76097 286.7262 329.05724 286.63969 329.29883 286.48633 C 329.54041 286.33282 330.0812 285.4785 330.50195 284.58789 C 330.92271 283.69725 331.66126 282.31546 332.14258 281.51758 C 332.6239 280.71972 333.0202 279.86047 333.02344 279.60938 C 333.02672 279.35831 333.51879 278.47843 334.11719 277.65234 C 334.71559 276.82629 335.20508 275.9363 335.20508 275.67578 C 335.20508 275.41538 335.61737 274.59579 336.12109 273.85352 C 336.62482 273.11124 337.13865 272.08354 337.26367 271.57031 C 337.38869 271.05705 337.87536 270.17522 338.34375 269.61133 C 338.81213 269.04741 339.30118 268.16237 339.43164 267.64258 C 339.5621 267.12275 340.05636 266.1266 340.5293 265.42969 C 341.00223 264.73277 341.48851 263.74175 341.60938 263.22852 C 341.73023 262.71526 342.11311 261.96927 342.46094 261.57031 C 343.24041 260.67635 344.02075 259.20242 343.82031 259.00195 C 343.51741 258.6989 282.45485 258.69777 238.73633 259 C 196.51462 259.29187 182.03337 259.15916 183.27539 258.49023 C 183.5595 258.33722 184.9112 258.09696 186.2793 257.95508 C 187.81744 257.79553 188.63881 257.56642 188.42969 257.35742 C 187.45767 256.38545 180.93939 256.2079 145.07812 256.16992 C 124.78254 256.14846 108.1654 256.00415 108.15039 255.84961 C 108.13532 255.69504 108.17497 255.40865 108.24023 255.21289 C 108.31495 254.98876 115.88148 254.78564 128.66797 254.66406 C 148.85227 254.47208 180.62479 253.85057 182.70508 253.60742 C 183.30348 253.53748 184.89203 253.37085 186.23633 253.23633 C 187.58063 253.1018 188.76806 252.84887 188.875 252.67578 C 188.98194 252.50275 188.45428 252.18035 187.70117 251.95898 C 185.23178 251.23287 161.03958 250.79592 135.66797 251.01758 C 118.85099 251.16467 111.04627 251.11363 110.88672 250.85547 C 110.15169 249.66622 111.21828 249.59308 131.08789 249.48828 C 164.82979 249.31016 187.51012 248.56799 188.4668 247.61133 C 189.80867 246.26933 186.16608 246.11968 149.03906 245.98633 C 129.72536 245.917 113.83158 245.76704 113.71875 245.6543 C 113.60592 245.54147 113.71184 245.20921 113.95508 244.91602 C 114.33167 244.46228 116.8564 244.38097 130.96094 244.35742 C 150.61957 244.32525 178.1911 243.74767 183.79297 243.25195 C 185.9871 243.05773 187.90509 242.89828 188.05469 242.89648 C 188.20429 242.89478 188.32617 242.65714 188.32617 242.36719 C 188.32617 241.08798 186.262 241.00079 151.04297 240.81445 C 119.33071 240.64666 116.49135 240.58418 116.5957 240.04102 C 116.69901 239.50332 118.95345 239.42644 141.18359 239.20508 C 164.04676 238.97736 183.45715 238.41352 187.23828 237.86914 C 188.13588 237.73991 188.83873 237.47107 188.80078 237.27148 C 188.76282 237.07202 187.86575 236.69004 186.80664 236.42188 C 185.29416 236.03914 177.85318 235.89475 152.13086 235.74609 C 122.08637 235.57239 119.39159 235.50644 119.49609 234.96289 C 119.59733 234.43627 120.59878 234.36204 128.49023 234.29492 C 144.74075 234.15692 178.28867 233.43252 182.93359 233.11914 C 187.2113 232.83054 189.05078 232.40183 189.05078 231.69141 C 189.05078 231.01998 182.32738 230.81575 152.9668 230.60352 C 122.40046 230.38245 122.13937 230.37548 122.26562 229.65625 C 122.33566 229.25732 123.988 226.07466 125.93555 222.58398 C 127.88309 219.09334 129.96874 215.33924 130.57031 214.24219 C 134.53864 207.00536 143.46769 191.00959 148.6875 181.78516 C 152.07365 175.80116 160.37127 160.9487 167.12695 148.78125 C 173.88264 136.6138 179.62113 126.44326 179.87891 126.17969 C 180.52021 125.52393 180.48221 125.42306 179.44141 125.02734 C 178.84182 124.79938 178.53393 124.40299 178.5332 123.85742 C 178.53125 122.66714 177.23176 120.71398 176.17578 120.3125 C 175.52721 120.06591 175.26953 119.69751 175.26953 119.01758 C 175.26953 117.82316 174.00514 116.01394 172.86914 115.58203 C 172.26226 115.3513 172.00586 114.97021 172.00586 114.30273 C 172.00586 113.10832 170.74147 111.2991 169.60547 110.86719 C 168.99182 110.63387 168.74219 110.2568 168.74219 109.56641 C 168.74219 108.4697 167.15205 106.16797 166.39453 106.16797 C 166.12133 106.16797 165.78296 105.6385 165.64258 104.99023 C 165.32355 103.51699 164.22279 101.92776 163.32422 101.64258 C 162.91615 101.51306 162.51701 100.89743 162.33203 100.11523 C 162.07954 99.047604 161.46287 98.272945 160.92969 98.201172 z M 241.28516 159.74609 C 241.24834 159.74331 241.21942 159.75324 241.19727 159.77539 C 240.85849 160.11418 243.48518 165.43483 245.79688 169.0918 C 246.42732 170.08914 247.68533 172.12902 248.59375 173.625 C 250.40962 176.61542 256.05288 185.48433 258.54688 189.26758 C 259.41926 190.59094 260.13281 191.83354 260.13281 192.0293 C 260.13281 192.2249 260.47872 192.8233 260.90039 193.35938 C 261.32206 193.89542 261.5482 194.44865 261.40234 194.58789 C 261.25648 194.72698 260.95249 194.5461 260.72656 194.1875 C 260.50062 193.82887 259.27117 192.03472 257.99609 190.19922 C 256.72101 188.36369 254.28719 184.82145 252.58789 182.32812 C 243.83444 169.4845 240.26577 164.74394 238.87305 164.10938 C 238.22954 163.81616 238.11718 163.62641 238.45508 163.41211 C 238.77411 163.20976 238.66982 163.11622 238.12305 163.11328 C 237.0755 163.10598 236.78254 163.63997 237.46289 164.32031 C 237.76392 164.62133 238.01172 165.06817 238.01172 165.3125 C 238.01172 166.21512 246.0668 179.50566 254.18359 191.99219 C 255.62869 194.21525 257.07663 196.58081 257.40039 197.25 L 257.98828 198.4668 L 256.59766 196.96289 C 255.83228 196.13583 254.56691 194.42164 253.78516 193.1543 C 253.00341 191.88695 251.10822 189.05546 249.57422 186.86133 C 248.04021 184.6672 245.66835 181.26816 244.30273 179.30664 C 241.03195 174.60856 236.8238 168.92973 235.87109 167.92773 C 235.45231 167.48727 235.10938 166.96248 235.10938 166.76172 C 235.10938 166.4269 233.98445 165.64648 233.50195 165.64648 C 233.38912 165.64648 233.29688 166.01619 233.29688 166.46875 C 233.29688 167.97117 237.12862 174.85737 243.03125 183.96094 C 250.04673 194.78081 254.43863 201.92675 254.21094 202.1543 C 253.9853 202.37993 252.22525 200.04897 249.51172 195.92773 C 248.19838 193.93307 246.81604 191.89322 246.43945 191.39453 C 246.06286 190.89587 244.47572 188.61222 242.91211 186.31836 C 237.46155 178.32221 236.035 176.32275 233.45898 173.08008 C 230.4691 169.31647 229.50568 168.3818 228.9668 168.71484 C 228.47844 169.0166 228.46244 169.99805 228.94531 169.99805 C 229.14478 169.99805 229.30664 170.24006 229.30664 170.53711 C 229.30664 170.83419 230.40946 172.96008 231.75586 175.25977 C 233.10226 177.55949 234.36694 179.7287 234.56641 180.08203 C 234.76587 180.43536 235.49058 181.61598 236.17773 182.70508 C 236.86489 183.79418 238.97104 187.13299 240.85742 190.125 C 245.90356 198.12869 246.08071 198.40115 246.74414 199.19141 C 247.74979 200.38928 250.53694 205.7586 249.87695 205.22656 C 249.5406 204.95539 248.3083 203.32313 247.13867 201.59961 C 245.96905 199.87611 243.57507 196.34504 241.81836 193.75195 C 230.06977 176.40997 225.77171 170.86999 224.80469 171.82227 C 224.23214 172.38607 226.4633 176.69207 231.51758 184.77344 C 237.39612 194.17275 239.26347 197.14482 240.35156 198.83008 C 245.58453 206.935 246.35142 208.18418 246.34961 208.60156 C 246.34666 209.22848 244.71884 207.10152 241.22656 201.91211 C 231.38913 187.294 222.53186 175.17467 221.41602 174.80273 C 220.4207 174.47095 220.59737 175.92992 221.85547 178.42578 C 222.92738 180.55224 230.91214 193.50776 238.01172 204.64258 C 241.36182 209.89681 243.08789 212.72256 243.08789 212.94922 C 243.08789 213.53969 242.21556 212.55523 240.5918 210.13281 C 232.84345 198.57348 222.82141 184.18683 220.92383 181.90039 C 220.14919 180.96701 219.51562 180.04108 219.51562 179.8418 C 219.51563 179.64248 219.25876 179.22165 218.94531 178.9082 C 218.27994 178.24273 217.16501 178.12684 217.55859 178.76367 C 217.73651 179.05156 217.62144 179.11112 217.19922 178.94922 C 216.76718 178.78355 216.65352 178.84638 216.83008 179.1582 C 218.58021 182.24933 222.6663 188.52797 235.25781 207.47461 L 250.16016 229.89844 L 251.61133 229.63867 C 252.40919 229.49502 253.38818 229.40124 253.78711 229.42773 C 255.65493 229.5552 286.48208 229.65331 286.88086 229.5332 C 287.13019 229.45802 287.33398 229.24677 287.33398 229.0625 C 287.33398 228.79301 280.01755 217.2039 273.74219 207.5332 C 250.73474 172.07741 242.42645 159.83228 241.28516 159.74609 z M 68.808594 197.39453 C 68.020961 197.62945 63.045042 206.06539 45.662109 236.50195 C 38.955259 248.24526 33.466797 258.08013 33.466797 258.35742 C 33.466797 258.63463 33.670199 259.18528 33.917969 259.58203 C 34.165741 259.97866 34.527358 260.2506 34.722656 260.18555 C 35.22673 260.01755 48.265912 237.06581 61.027344 213.88086 C 66.560424 203.8284 69.201991 198.32278 68.912109 197.45312 C 68.894397 197.39999 68.861103 197.37887 68.808594 197.39453 z M 72.716797 200.40039 C 72.190826 200.30161 71.396084 201.36442 69.242188 204.63281 C 67.505666 207.26788 65.775992 210.14621 57.039062 224.94141 C 50.171404 236.57118 36.005859 261.73429 36.005859 262.30469 C 36.005859 262.65145 36.346518 263.4864 36.761719 264.1582 C 37.17692 264.83001 37.624481 265.37644 37.757812 265.375 C 37.891144 265.37344 39.54238 262.6403 41.427734 259.30078 C 43.313089 255.96129 46.345323 250.61921 48.166016 247.42773 C 62.984268 221.45309 73.654692 201.59411 73.193359 200.84766 C 73.037403 200.59532 72.892121 200.43332 72.716797 200.40039 z M 77.867188 201.7207 C 77.763392 201.70886 77.609503 201.77231 77.384766 201.89258 C 76.424941 202.40628 70.161146 212.46167 61.669922 227.11719 C 50.394707 246.57779 38.908203 266.79893 38.908203 267.1875 C 38.908203 267.3663 39.249334 268.09319 39.667969 268.80273 C 40.565711 270.32429 41.174261 270.4347 41.746094 269.17969 C 41.974972 268.67735 45.811258 261.86445 50.271484 254.03906 C 68.215533 222.55653 78.076172 204.28079 78.076172 202.50195 C 78.076172 201.97193 78.04018 201.74044 77.867188 201.7207 z M 81.921875 204.45117 C 81.10806 204.45117 78.190435 209.06415 67.925781 226.57422 C 56.80755 245.54037 42.171875 271.41396 42.171875 272.10352 C 42.171875 272.44687 42.51058 273.27741 42.925781 273.94922 C 43.340982 274.62103 43.799305 275.16992 43.943359 275.16992 C 44.087414 275.16992 45.570206 272.76441 47.238281 269.82227 C 48.906353 266.88015 51.522303 262.26896 53.050781 259.57617 C 68.342748 232.63556 79.915533 211.68165 80.626953 209.65039 C 80.825335 209.08397 81.379934 207.80907 81.859375 206.81641 C 82.742994 204.98691 82.756986 204.45117 81.921875 204.45117 z M 86.490234 206.67578 C 86.24405 206.7318 85.842201 207.13544 85.273438 207.98633 C 84.773444 208.73432 83.709068 210.32666 82.908203 211.52344 C 80.373374 215.31145 69.165455 234.34829 60.595703 249.42188 C 59.291581 251.71574 55.26531 258.77616 51.648438 265.11328 C 48.031565 271.45038 45.072266 276.83915 45.072266 277.08789 C 45.072266 277.33675 45.496537 278.16577 46.015625 278.92969 C 46.534713 279.6936 47.085769 280.18069 47.238281 280.01172 C 47.390789 279.84263 49.554177 276.11287 52.046875 271.72461 C 54.539573 267.33635 58.295679 260.72722 60.392578 257.03711 C 69.78671 240.50526 81.216255 219.83364 84.757812 212.97266 C 86.561455 209.4785 87.228786 206.50773 86.490234 206.67578 z M 91.386719 208.78516 C 91.169346 208.8006 90.798776 209.20152 90.019531 210.14453 C 87.153708 213.61257 75.399317 233.55395 54.378906 270.60742 L 48.017578 281.82031 L 48.585938 282.9375 C 48.897943 283.55241 49.314709 284.26044 49.513672 284.50977 C 49.71263 284.7591 50.002596 284.96289 50.15625 284.96289 C 50.309901 284.96289 52.682289 281.00502 55.429688 276.16797 C 84.818215 224.42659 92.191437 210.78994 91.667969 209.14062 C 91.593274 208.90529 91.517143 208.77589 91.386719 208.78516 z "
         transform="matrix(0.33971092,0,0,0.33971092,-21.638453,45.929256)"
         id="path836" />
      <path
         style="fill:#582421;stroke-width:0.36266607"
         d="M 179.33398 32.898438 C 178.95504 32.887253 178.63969 32.981462 178.50391 33.201172 C 178.40435 33.362262 178.94965 34.46313 179.71484 35.648438 C 180.48004 36.833745 182.61797 40.252147 184.46484 43.244141 C 195.0312 60.36203 201.87169 71.016537 205.12305 75.416016 C 206.21233 76.889945 207.29297 77.645749 207.29297 76.933594 C 207.29297 76.812747 206.55971 75.406672 205.66211 73.810547 C 204.76451 72.214419 204.0293 70.858486 204.0293 70.796875 C 204.0293 70.584703 195.2757 56.035229 191.08594 49.283203 C 188.777 45.562222 185.78553 40.723427 184.4375 38.529297 C 183.08946 36.33517 181.6481 34.173409 181.23438 33.724609 C 180.77582 33.227174 179.96555 32.917078 179.33398 32.898438 z M 168.01367 32.921875 C 167.48874 32.938585 167.03711 33.056193 167.03711 33.261719 C 167.03711 33.456267 168.53062 36.025612 170.35547 38.972656 C 190.63481 71.722866 195.74345 79.627811 197.6582 81.208984 C 198.06439 81.544411 198.47005 81.744796 198.55859 81.65625 C 198.79823 81.416608 196.0291 76.252224 192.25781 69.900391 C 186.88005 60.842866 169.86446 33.476265 169.42969 33.185547 C 169.13629 32.989364 168.53861 32.905165 168.01367 32.921875 z M 174.05664 32.921875 C 173.49686 32.872303 172.93743 32.929756 172.74023 33.126953 C 172.6193 33.247888 173.06828 34.186895 173.73633 35.212891 C 174.93311 37.050924 182.98554 50.034634 187.66797 57.675781 C 191.54456 64.001886 200.0685 76.925288 200.75391 77.515625 C 201.10129 77.814826 201.48502 78.344292 201.60742 78.693359 C 201.84194 79.362219 202.94141 79.587819 202.94141 78.966797 C 202.94141 78.76733 202.61573 78.27784 202.2168 77.878906 C 201.81786 77.479973 201.49023 76.862361 201.49023 76.507812 C 201.49023 76.153258 201.20739 75.459975 200.86133 74.966797 C 200.51527 74.473616 198.82759 71.622853 197.11133 68.630859 C 195.39506 65.638863 191.24859 58.784028 187.89648 53.398438 C 184.54438 48.012847 180.44483 41.403733 178.78516 38.710938 C 177.12548 36.018142 175.59125 33.610658 175.37695 33.361328 C 175.17727 33.128984 174.61642 32.971447 174.05664 32.921875 z M 185.2832 32.921875 C 184.83114 32.920917 184.42269 33.012647 184.30859 33.197266 C 184.21009 33.356648 184.82978 34.621334 185.68555 36.007812 C 199.31801 58.094477 207.45303 70.791445 208.55859 71.708984 C 208.85997 71.959106 209.10742 72.338729 209.10742 72.552734 C 209.10742 72.766731 209.54605 73.399538 210.08203 73.958984 C 210.61802 74.518434 211.09346 74.976562 211.13867 74.976562 C 211.41444 74.976562 209.67517 70.970839 208.35742 68.570312 C 204.87304 62.222845 187.2375 33.656725 186.52344 33.203125 C 186.23146 33.017629 185.73527 32.922833 185.2832 32.921875 z M 191.06445 32.923828 C 190.61664 32.934125 190.20926 33.03996 190.08789 33.236328 C 189.91005 33.524079 191.93512 36.958915 198.22852 47.050781 C 203.57685 55.627179 206.42246 60.078859 209.31445 64.390625 C 211.09514 67.045515 212.85327 69.696763 213.2207 70.283203 C 213.9074 71.379209 214.35058 71.599445 214.70898 71.019531 C 214.9679 70.600596 212.89854 66.692654 208.25977 58.837891 C 203.06804 50.046828 192.76442 33.50088 192.28516 33.185547 C 192.00088 32.998505 191.51227 32.913532 191.06445 32.923828 z M 162.84961 32.945312 C 162.64437 32.934165 162.46396 32.997157 162.32812 33.144531 C 162.17198 33.313946 163.94318 36.400994 166.26367 40.005859 C 168.58416 43.610727 172.3471 49.48658 174.625 53.0625 C 176.9029 56.638426 181.38036 63.517557 184.57617 68.349609 C 187.77199 73.181656 190.45418 77.069262 190.53516 76.988281 C 190.81442 76.709017 184.44329 66.184518 168.63867 40.810547 C 167.05937 38.275018 165.39347 35.548894 164.93555 34.753906 C 164.3151 33.676776 163.46534 32.978756 162.84961 32.945312 z M 195.7793 33.253906 C 195.71426 33.257048 195.6875 33.33387 195.6875 33.462891 C 195.6875 34.439444 216.62578 67.069826 217.95703 68.167969 C 218.37482 68.512591 218.75263 68.798319 218.79688 68.802734 C 219.1913 68.842265 214.51332 61.227099 207.77344 50.859375 C 198.62664 36.789173 196.23456 33.231915 195.7793 33.253906 z M 160.55469 98.753906 C 160.39728 98.815081 160.23924 99.004339 160.02539 99.341797 C 158.90865 101.10401 141.63793 130.88268 138.92578 135.72266 C 137.36095 138.51519 134.82069 143.02073 133.2793 145.73438 C 131.7379 148.44802 130.15658 151.30502 129.76562 152.08203 C 129.37467 152.85904 128.46709 154.57563 127.75 155.89648 C 127.03291 157.21734 126.54855 158.40011 126.67383 158.52539 C 126.7991 158.65067 126.96495 158.75195 127.04102 158.75195 C 127.30669 158.75195 128.93383 156.75588 128.94531 156.41602 C 128.95161 156.22746 129.35497 155.65606 129.83984 155.14648 C 130.32472 154.6369 131.26177 153.28332 131.92383 152.13867 C 132.58589 150.99402 134.17045 148.30084 135.44336 146.1543 C 141.12392 136.575 144.09099 131.45097 149.30664 122.2168 C 152.37622 116.78218 155.05054 112.04589 155.25 111.69336 C 162.12856 99.536426 162.04065 99.732414 161.07812 98.933594 C 160.8694 98.760364 160.7121 98.692731 160.55469 98.753906 z M 163.07227 102.34375 C 162.91798 102.4391 161.75592 104.35714 160.49023 106.60742 C 159.22455 108.8577 155.99606 114.5352 153.31641 119.22266 C 146.82246 130.58237 140.13735 142.63237 137.12109 148.41602 C 135.76877 151.00908 134.26013 153.7359 133.76758 154.47461 C 133.07661 155.51089 130.44114 161.97315 130.41406 162.69727 C 130.39594 163.18344 133.52316 159.2776 134.58789 157.48438 C 135.29849 156.28758 136.34869 154.57338 136.91992 153.67578 C 140.08464 148.70294 151.236 129.31736 161.22266 111.42969 C 162.66875 108.8395 164.07983 106.39633 164.35742 106 C 164.63501 105.60367 164.86133 105.01125 164.86133 104.68359 C 164.86133 103.9456 163.45543 102.10696 163.07227 102.34375 z M 166.46875 107.08203 C 166.31203 107.06362 166.18298 107.15502 166.02148 107.34961 C 165.80398 107.61169 163.60575 111.41048 161.13672 115.79102 C 158.66769 120.17156 154.51943 127.50993 151.91992 132.09766 C 142.50216 148.71853 135.12305 162.84836 135.12305 164.25977 C 135.12305 164.57315 134.87732 165.0328 134.57812 165.28125 C 134.27892 165.52955 134.03516 165.97815 134.03516 166.27734 C 134.03516 166.74224 134.12124 166.74766 134.63477 166.32227 C 135.30234 165.76924 139.51826 159.38752 141.70703 155.61523 C 142.03681 155.04688 143.32379 152.86784 144.56836 150.77344 C 149.12369 143.10757 154.5462 133.73504 158.52148 126.65625 C 160.7618 122.66692 163.44924 117.93582 164.49219 116.14062 C 168.36335 109.47734 168.56051 108.81438 167.08008 107.47461 C 166.8089 107.2292 166.62547 107.10044 166.46875 107.08203 z M 169.78711 111.8418 C 169.14711 111.94067 168.20373 113.60018 165.76758 117.95312 C 164.20473 120.74565 161.02396 126.37578 158.69727 130.46484 C 148.03031 149.21151 138.90841 166.47147 139.31836 167.13477 C 139.42775 167.31189 139.62976 167.44927 139.76758 167.4375 C 140.53704 167.38001 143.83851 162.21028 151.79883 148.59766 C 157.92516 138.12127 160.0556 134.41203 165.375 124.95898 L 171.43359 114.19336 L 170.86914 113.10352 C 170.44527 112.28383 170.17111 111.78247 169.78711 111.8418 z M 172.9707 116.42383 C 172.74664 116.34914 171.21208 118.70336 169.5625 121.6543 C 167.91292 124.60523 165.06705 129.63081 163.23633 132.82227 C 161.40561 136.01373 159.11525 140.09347 158.14844 141.88867 C 157.18162 143.68387 155.30223 147.11031 153.9707 149.50391 C 149.85696 156.8989 144.77932 166.73454 144.39062 168.06055 C 144.19547 168.72626 144.27704 168.81722 144.92969 168.64648 C 145.94002 168.38226 148.78576 163.97114 156.34375 150.95508 C 157.38616 149.15988 159.38167 145.73344 160.7793 143.33984 C 163.09866 139.36767 166.05214 134.16644 172.37695 122.91016 L 174.68555 118.80078 L 174.03125 117.67969 C 173.67146 117.06364 173.19478 116.49851 172.9707 116.42383 z M 176.23828 121.14062 C 176.01322 121.06624 174.23372 123.82606 172.2832 127.27539 C 170.33269 130.72472 167.56709 135.58675 166.13672 138.08008 C 164.70634 140.57341 162.34026 144.81697 160.87891 147.50977 C 159.41756 150.20256 157.45086 153.79282 156.50977 155.48828 C 154.98853 158.22891 152.71369 162.51232 149.86328 168.00195 C 149.34513 168.99986 148.8151 170.34644 148.68555 170.99414 C 148.3229 172.80736 149.36553 172.50541 150.56641 170.44922 C 151.11975 169.50177 152.11895 167.94579 152.78711 166.99219 C 153.45527 166.03858 154.46661 164.4063 155.03516 163.36523 C 155.60371 162.3242 157.98447 158.20807 160.32422 154.21875 C 166.75625 143.252 166.97423 142.87544 172.12695 133.77539 C 177.82904 123.70513 177.91086 123.51494 177.18555 122.22852 C 176.8896 121.70362 176.46335 121.21501 176.23828 121.14062 z M 179.125 126.11328 C 178.71825 126.11379 161.63772 156.26565 158.01562 163.37695 C 156.44479 166.46099 157.60193 164.80211 160.41797 159.93164 C 163.84678 154.00138 172.54299 138.50948 175.73828 132.64062 C 176.98718 130.34676 178.32877 127.93928 178.71875 127.29102 C 179.10885 126.64275 179.29088 126.11308 179.125 126.11328 z M 157.08203 165.28125 C 156.9823 165.28125 156.64734 165.77075 156.33789 166.36914 C 156.02845 166.96753 155.8573 167.45703 155.95703 167.45703 C 156.05676 167.45703 156.39173 166.96753 156.70117 166.36914 C 157.01061 165.77075 157.18176 165.28125 157.08203 165.28125 z M 255.99023 182.49414 C 255.91833 182.51691 255.89575 182.653 255.89453 182.88867 C 255.89232 183.29758 256.04533 183.78699 256.23438 183.97656 C 256.42342 184.16605 257.00729 185.13745 257.5332 186.13477 C 258.05911 187.13208 259.22451 189.09005 260.12109 190.48633 C 261.01767 191.8826 262.98376 195.06527 264.49023 197.55859 C 265.99672 200.05192 268.24239 203.72408 269.48242 205.71875 C 273.58691 212.32104 275.10021 214.9668 274.76953 214.9668 C 274.19808 214.9668 271.38485 211.35909 266.56836 204.44922 C 254.43271 187.03906 251.58587 183.22274 251.0957 183.71289 C 250.55855 184.25005 251.69198 186.45962 256.61719 194.47461 C 259.06862 198.46394 262.36713 203.83588 263.94727 206.41016 C 265.5274 208.98446 267.40239 212.00003 268.11328 213.11133 C 269.20678 214.82075 270.5308 217.3789 271.04297 218.77344 C 271.4063 219.76272 265.98665 212.6286 261.81445 206.625 C 256.16343 198.49344 251.79165 192.28728 251.03516 191.32031 C 250.61352 190.78135 249.69813 189.58709 249 188.66602 C 247.17104 186.25293 246.0883 185.11692 245.84766 185.35742 C 245.37379 185.83127 246.35273 187.57624 254.73047 201.18555 C 256.7565 204.47673 259.19254 208.39266 260.14258 209.88867 C 264.6008 216.90893 267.33486 221.77645 267.00586 222.10547 C 266.73816 222.37317 254.64779 205.67403 248.77344 196.92383 C 247.93643 195.67703 246.86878 194.17953 246.40234 193.59766 C 245.93591 193.01575 244.9186 191.63405 244.14062 190.52734 C 243.36265 189.42064 242.58747 188.60224 242.41797 188.70703 C 241.98631 188.97379 242.0319 190.30469 242.47266 190.30469 C 242.67212 190.30469 242.83398 190.5416 242.83398 190.83008 C 242.83398 191.52944 244.25517 193.93496 252.27148 206.80664 C 260.40869 219.87246 263.14453 224.40127 263.14453 224.8125 C 263.14453 225.60091 262.37204 224.92161 260.70898 222.67188 C 258.84732 220.1535 253.90949 213.22513 252.97266 211.81641 C 245.63297 200.77967 238.0541 190.80317 237.34375 191.24219 C 236.96465 191.47647 240.23569 197.18683 246.15625 206.625 C 247.84544 209.31779 250.26522 213.23373 251.5332 215.32812 C 252.80118 217.42252 254.48578 220.11569 255.27539 221.3125 C 256.065 222.50928 257.2699 224.54916 257.95312 225.8457 C 258.63636 227.14222 259.43721 228.38905 259.73438 228.61719 C 260.42686 229.14879 286.35352 229.31042 286.35352 228.7832 C 286.35352 228.59136 284.9149 226.17792 283.1543 223.42188 C 273.35327 208.0793 270.12952 203.1112 264.99805 195.4375 C 261.88406 190.78083 259.01026 186.44612 258.61133 185.80469 C 258.21239 185.16326 257.4389 184.07846 256.89258 183.39258 C 256.36782 182.73378 256.11008 182.45619 255.99023 182.49414 z M 233.68945 194.65625 C 232.99264 194.65625 232.98475 194.69962 233.54688 195.47266 C 233.87322 195.92145 234.23314 196.53284 234.3457 196.83203 C 234.68994 197.74704 235.64048 199.4617 236.85742 201.36523 C 237.49503 202.36255 240.18406 206.68803 242.83398 210.97656 C 245.48391 215.26509 248.01989 219.34485 248.46875 220.04297 C 248.91761 220.74109 250.18496 222.78097 251.28711 224.57617 C 252.38926 226.37137 253.54953 228.12555 253.86523 228.47461 C 254.48929 229.16461 257.84834 229.39295 258.23242 228.77148 C 258.45781 228.40679 257.7284 227.24487 255.14453 223.84766 C 254.23583 222.65291 251.95218 219.42881 250.06836 216.68359 C 246.14919 210.97241 237.88515 199.28008 235.81836 196.51953 C 234.94197 195.34898 234.15188 194.65625 233.68945 194.65625 z M 229.53906 197.22461 C 229.44603 197.22483 229.37442 197.28346 229.31445 197.39062 C 228.97126 198.00385 231.63498 202.29934 242.75 219.04688 C 249.32076 228.94747 249.45054 229.10938 250.66602 229.10938 C 251.41504 229.10937 251.90039 228.93012 251.90039 228.6543 C 251.90039 228.26717 249.56541 224.80397 243.85156 216.7168 C 243.1927 215.78427 241.34768 213.1115 239.75195 210.77734 C 238.15622 208.44315 235.95253 205.33335 234.85547 203.86719 C 233.7584 202.40103 232.13126 200.22033 231.24023 199.02148 C 230.29101 197.74434 229.81816 197.22395 229.53906 197.22461 z M 58.550781 214.59375 C 58.524413 214.5991 58.502039 214.61206 58.486328 214.63281 C 56.042372 217.865 33.212891 257.44431 33.212891 258.44922 C 33.212891 258.78901 33.411551 259.26311 33.652344 259.50391 C 34.287863 260.13942 34.462228 259.89079 38.835938 252.13867 C 54.601363 224.19547 59.379693 215.26252 58.849609 214.73242 C 58.746356 214.6291 58.629887 214.57769 58.550781 214.59375 z M 62.433594 218.08398 C 61.744036 218.17234 60.14349 220.61185 54.53125 229.83594 C 52.767006 232.73558 37.339781 259.71883 36.371094 261.59961 C 35.831836 262.64662 35.842677 262.79327 36.519531 263.90625 C 36.917232 264.56022 37.295387 265.03726 37.361328 264.96484 C 37.517433 264.79352 53.352693 236.90166 55.041016 233.82422 C 60.456019 223.95389 63.081389 218.57749 62.681641 218.17773 C 62.611267 218.10736 62.532102 218.07136 62.433594 218.08398 z M 67.349609 220.09766 C 66.18477 220.25551 61.767695 227.3012 51.541016 245.24805 C 48.585802 250.43419 44.558439 257.47139 42.591797 260.88477 C 40.625154 264.29811 39.015625 267.32122 39.015625 267.60352 C 39.015625 267.88579 39.269568 268.47856 39.580078 268.92188 C 39.890588 269.36519 40.258196 269.72464 40.396484 269.71875 C 40.534774 269.7138 42.275996 266.81874 44.265625 263.2832 C 46.255255 259.74764 50.056167 253.03677 52.710938 248.37109 C 61.907583 232.20823 67.998916 220.61806 67.539062 220.1582 C 67.48955 220.10869 67.427265 220.08713 67.349609 220.09766 z M 72.142578 222.04102 C 72.025848 222.04919 71.867378 222.10617 71.667969 222.21289 C 71.275985 222.42269 70.286504 223.69207 69.46875 225.03516 C 68.650993 226.37827 67.314102 228.53939 66.496094 229.83594 C 63.546498 234.511 44.967764 266.76946 42.316406 271.82031 C 41.962562 272.49439 42.000288 272.83897 42.523438 273.72461 C 43.332083 275.09366 43.571548 275.08039 44.316406 273.62695 C 44.96156 272.36806 52.585602 258.88388 56.054688 252.86523 C 57.848408 249.75324 62.061391 242.1977 66.875 233.46289 C 67.589499 232.16638 68.971336 229.47318 69.945312 227.47852 C 70.919288 225.48388 71.865931 223.56901 72.048828 223.22266 C 72.468355 222.42813 72.492767 222.01649 72.142578 222.04102 z M 76.658203 224.97266 C 76.314253 224.87736 74.886056 226.15687 74.076172 227.36328 C 71.263102 231.55358 64.947527 242.20923 58.316406 253.95312 C 55.725977 258.54085 51.711648 265.60716 49.394531 269.65625 C 47.077414 273.70534 45.181641 277.25682 45.181641 277.54883 C 45.181641 277.84081 45.383414 278.40453 45.630859 278.80078 C 45.878307 279.197 46.245912 279.51854 46.447266 279.51562 C 46.648618 279.51289 48.267677 276.94158 50.044922 273.80273 C 51.82217 270.66389 54.900126 265.24064 56.884766 261.75 C 69.619712 239.35125 76.734375 226.2158 76.734375 225.10156 C 76.734375 225.02767 76.707339 224.98627 76.658203 224.97266 z M 81.333984 226.39258 C 80.359261 226.16276 72.39719 239.29906 57.15625 266.2832 C 54.903035 270.27254 51.930194 275.5243 50.548828 277.95312 C 48.048307 282.34977 48.039449 282.3747 48.613281 283.48438 C 48.930284 284.09737 49.313896 284.59766 49.466797 284.59766 C 49.806658 284.59766 48.953104 286.07622 68.105469 252.32031 C 72.592377 244.41215 79.600493 231.38263 80.685547 228.92969 C 81.105322 227.98073 81.442729 226.93895 81.435547 226.61523 C 81.432578 226.48124 81.398966 226.4079 81.333984 226.39258 z M 122.08789 231.10547 L 121.30078 231.89062 C 120.81588 232.37527 120.60341 232.90751 120.74609 233.2793 L 120.74609 233.28125 C 120.95872 233.8354 122.24607 233.86458 136.66406 233.65234 C 152.79935 233.41479 165.35941 232.94195 166.42969 232.53125 C 167.42744 232.14837 167.12433 231.69987 165.67773 231.41992 C 164.92973 231.27509 154.81626 231.14558 143.20312 231.13086 L 122.08789 231.10547 z M 140.42188 236.14648 C 138.08692 236.15902 135.66714 236.185 133.19141 236.22656 L 118.75 236.4707 L 118.20117 237.30664 C 117.89939 237.76721 117.77393 238.34076 117.92188 238.58008 C 118.41475 239.37758 166.1583 238.39969 167.50977 237.56445 C 168.98054 236.65546 156.76659 236.05873 140.42188 236.14648 z M 143.35547 241.28711 C 139.25086 241.27439 134.91893 241.29298 130.65039 241.35156 L 115.84375 241.55469 L 115.29688 242.38867 C 114.99656 242.84697 114.87295 243.418 115.02148 243.6582 L 115.02148 243.66016 C 115.23017 243.9978 119.99895 244.0371 135.99609 243.83398 C 156.64485 243.57194 166.08173 243.24248 166.55664 242.76758 C 166.69449 242.62973 166.62735 242.3363 166.40625 242.11523 C 165.94779 241.65684 155.6693 241.32528 143.35547 241.28711 z M 143.98828 246.45117 C 139.17611 246.44584 133.93447 246.46768 129.42578 246.51758 C 113.5655 246.69299 113.0124 246.72217 112.48242 247.42383 C 112.1811 247.82278 111.9303 248.377 111.92383 248.6543 C 111.91405 249.08201 115.25861 249.12434 133.94336 248.93359 C 155.39656 248.71444 166.52943 248.32609 167.43945 247.76367 C 168.55808 247.07232 165.46425 246.74351 155.97656 246.54688 C 153.18403 246.48888 148.80045 246.45651 143.98828 246.45117 z M 110.32227 251.54297 L 109.67578 252.38477 C 109.32011 252.84707 109.02505 253.42956 109.01953 253.67969 C 109.00349 254.58122 163.02366 254.03431 166.50781 253.09766 L 167.58203 252.80859 L 166.67383 252.29297 C 165.91635 251.86163 161.20591 251.75789 138.04492 251.66016 L 110.32227 251.54297 z M 120.44531 256.68164 C 108.36359 256.66887 107.8384 256.80581 107.19336 257.32812 C 106.43291 257.94391 106.3802 258.12095 106.80664 258.63477 C 107.25673 259.17702 109.13792 259.2094 128.375 259.01953 C 148.17894 258.82392 162.40932 258.38713 165.16016 257.88867 C 166.05299 257.72692 166.26087 257.56374 165.95898 257.26172 C 165.66594 256.96868 157.46909 256.81974 136.8125 256.73438 C 129.78464 256.70531 124.47255 256.6859 120.44531 256.68164 z M 331.20312 259.24023 C 326.74337 259.24404 320.70238 259.28006 312.55664 259.32422 C 295.65187 259.41586 281.16896 259.64083 280.37109 259.82422 L 278.91992 260.1582 L 280.37109 260.45508 C 281.16896 260.61842 283.53451 260.86884 285.62891 261.01367 C 287.7233 261.15859 301.33204 261.30201 315.87109 261.33203 C 340.65894 261.3834 342.3373 261.34708 342.78906 260.75195 C 343.73239 259.50923 344.58239 259.22882 331.20312 259.24023 z M 318.17773 263.2168 C 293.88577 263.23322 279.27269 263.61012 278.64648 264.23633 C 278.00678 264.87605 279.5764 265.03613 289.44141 265.33789 C 294.62551 265.49644 308.11933 265.65044 319.42773 265.68164 L 339.98828 265.74023 L 340.55273 264.93359 C 341.81286 263.13462 342.66409 263.19913 318.17773 263.2168 z M 314.55273 267.58008 C 290.96872 267.60595 279.39085 267.86892 278.86914 268.39062 C 278.31153 268.94825 279.3384 269.17448 283.38281 269.38672 C 285.71558 269.50918 298.87167 269.635 312.61914 269.66797 C 335.42056 269.72246 337.67234 269.67643 338.27734 269.12891 C 340.04164 267.53217 340.33937 267.55064 314.55273 267.58008 z M 326.50391 271.5293 C 322.58703 271.53973 317.24836 271.58813 310.01758 271.64648 C 292.01933 271.79173 282.29266 272.00654 280.2793 272.30273 C 277.15079 272.76298 276.32119 273.32121 278.64844 273.40039 C 279.39644 273.42577 283.02667 273.56116 286.7168 273.69922 C 290.40692 273.83722 302.92364 273.97971 314.53125 274.01562 L 335.63672 274.08008 L 336.20117 273.27344 C 337.22389 271.81329 338.25453 271.498 326.50391 271.5293 z M 313.29102 275.91797 C 302.16197 275.94764 290.07296 276.05924 286.23633 276.22852 C 279.75072 276.5147 277.59213 276.93202 279.48633 277.5332 C 279.93725 277.67632 285.05299 277.90938 290.85547 278.05273 C 305.42736 278.41245 332.87067 278.47801 333.35547 278.1543 C 333.75074 277.89037 334.58984 276.4948 334.58984 276.09961 C 334.58984 275.94056 324.42006 275.88829 313.29102 275.91797 z M 316.9082 279.89258 C 299.63363 279.90362 280.41189 280.41517 279.10547 280.89844 C 277.4891 281.49639 279.09387 281.79056 285.40234 282.05078 C 288.8187 282.19181 300.53975 282.33344 311.44922 282.36523 L 331.2832 282.42188 L 331.84766 281.61523 C 333.09064 279.84073 333.44887 279.8808 316.9082 279.89258 z M 311.02344 284.26367 C 300.92174 284.30382 289.83086 284.41846 285.87109 284.57617 C 281.56471 284.74767 278.15364 285.03765 277.93945 285.25195 C 277.57747 285.61394 278.01593 285.71988 281.82031 286.17383 L 281.82031 286.17188 C 282.41871 286.24341 293.36865 286.3274 306.15234 286.35742 L 329.39453 286.41211 L 329.81641 285.48828 C 330.04789 284.98023 330.23633 284.49076 330.23633 284.40039 C 330.23633 284.25842 321.12513 284.22352 311.02344 284.26367 z "
         transform="matrix(0.33971092,0,0,0.33971092,-21.638453,45.929256)"
         id="path834" />
    </g>
    <path
       inkscape:connector-curvature="0"
       style="fill:#ffffff;stroke-width:0.09595539"
       d="m 127.47573,89.912551 c -3.00881,-0.0185 -19.03726,0.14357 -19.21536,0.1943 -0.15991,0.0454 -0.16795,1.44144 -0.16795,27.583849 v 27.53579 l 13.79399,-0.0305 c 13.55857,-0.03 13.8149,-0.0341 15.04405,-0.23564 6.54461,-1.07299 11.46407,-3.52389 15.7334,-7.83777 4.9517,-5.00337 7.75647,-11.58102 7.98245,-18.72186 0.14152,-4.47124 -0.68467,-8.37047 -2.60242,-12.28241 -2.38454,-4.86417 -6.07922,-8.674148 -11.15125,-11.499588 -5.22463,-2.910441 -12.45568,-4.663291 -19.41691,-4.706171 z m 35.16736,0.66094 -0.0315,0.95963 c -0.0173,0.52775 -0.002,2.52486 0.0351,4.43797 l 0.0667,3.47834 h 10.64328 c 9.66693,0 10.64818,0.014 10.70167,0.15348 0.0425,0.11087 -0.93799,1.157009 -3.53002,3.766189 -1.97394,1.987 -5.04685,5.08315 -6.82852,6.8802 l -3.23959,3.2675 0.0258,2.57917 0.0253,2.57968 2.01538,-0.0228 c 9.9699,-0.11237 16.69986,2.85307 17.99839,7.93026 0.37851,1.47999 0.1831,3.19199 -0.53848,4.71497 -1.20152,2.53596 -3.83125,4.60453 -7.0316,5.53196 -3.46088,1.00293 -7.61937,0.6756 -11.62771,-0.91571 -1.9865,-0.78863 -4.84222,-2.3978 -6.74328,-3.79926 -0.2598,-0.19154 -0.39162,-0.23727 -0.4661,-0.16278 -0.0572,0.0571 -1.02422,1.73795 -2.14924,3.73517 -1.58628,2.81608 -2.02007,3.65772 -1.93217,3.74862 0.38549,0.39885 5.80916,2.6824 8.49095,3.57497 3.45649,1.15041 5.89466,1.67991 9.90018,2.14974 h 5.2e-4 c 0.87229,0.10213 5.55745,-0.0238 6.47661,-0.17415 5.03758,-0.82372 9.04454,-3.02576 11.70884,-6.43526 2.14012,-2.73871 3.23825,-5.9546 3.24424,-9.49968 0.005,-2.65174 -0.48217,-4.771 -1.62108,-7.05745 -1.27905,-2.56779 -3.44764,-4.85304 -6.07147,-6.39806 -2.58047,-1.51947 -6.49775,-2.61144 -9.39167,-2.61844 -0.65985,-0.002 -0.98846,-0.0768 -0.98546,-0.22583 7.9e-4,-0.0598 3.38849,-3.6497 7.5277,-7.97729 l 7.52615,-7.868246 -0.0196,-3.16622 -0.0192,-3.16673 h -17.0801 z m -37.29281,8.262021 c 7.70482,-0.0109 7.69392,-0.0113 10.37767,0.57775 2.49793,0.548272 5.33036,1.716928 7.19542,2.968818 2.60285,1.74713 4.57336,3.96634 5.95261,6.70398 3.08377,6.12094 2.53934,13.81126 -1.39268,19.67787 -2.84108,4.2389 -6.98283,6.82526 -11.97653,7.47965 -0.94484,0.12379 -2.47973,0.14882 -9.26765,0.14882 -4.47443,0 -8.16379,-0.0289 -8.19899,-0.0641 -0.0351,-0.0352 -0.0641,-8.45694 -0.0641,-18.71462 0,-17.01944 0.0132,-18.655099 0.15348,-18.708939 0.0846,-0.0325 3.33396,-0.0637 7.22075,-0.0692 z m 25.73022,50.977268 v 2.69337 c 0,2.09329 -0.0267,2.69169 -0.1199,2.68769 -0.066,-0.003 -0.29715,-0.25405 -0.51418,-0.55862 -0.217,-0.30459 -1.15642,-1.51172 -2.0872,-2.68201 -1.19342,-1.50051 -1.74871,-2.12752 -1.88413,-2.12752 -0.18803,0 -0.19224,0.0633 -0.19224,3.39049 0,1.86473 0.0308,3.42079 0.0682,3.45819 0.0374,0.038 0.15583,0.0557 0.26356,0.0403 0.19131,-0.0274 0.19637,-0.0924 0.22117,-2.7869 0.0147,-1.58925 0.063,-2.75849 0.11369,-2.75849 0.0484,0 0.18669,0.14008 0.30748,0.31161 0.44486,0.63178 3.90609,5.02698 4.05814,5.15317 0.10166,0.0843 0.19043,0.0979 0.25063,0.0377 0.0577,-0.0576 0.0834,-1.37067 0.0677,-3.44578 l -0.0248,-3.35225 -0.26407,-0.0305 z m 17.48782,0.003 -0.36277,0.9405 c -0.19937,0.51729 -0.78647,2.03638 -1.30483,3.37603 -0.51785,1.33838 -0.91835,2.4715 -0.89091,2.51923 0.0767,0.12339 0.38717,0.1 0.49249,-0.0372 0.0506,-0.066 0.19213,-0.4006 0.3147,-0.74363 0.35787,-1.00146 0.26587,-0.95963 2.1115,-0.95963 1.84563,0 1.75311,-0.0418 2.11099,0.95963 0.12258,0.34303 0.26462,0.67763 0.31522,0.74363 0.1032,0.1345 0.51062,0.16283 0.586,0.0408 0.0269,-0.0435 -0.54372,-1.58709 -1.26813,-3.43028 l -1.31723,-3.35122 -0.39378,-0.029 z m -60.37978,0.007 v 3.45766 3.45768 l 2.27893,-0.0253 2.27893,-0.0258 0.03,-0.36019 0.0294,-0.35967 h -1.91306 c -1.51829,0 -1.93616,-0.0277 -2.02417,-0.13384 -0.0734,-0.0885 -0.10171,-0.50185 -0.0837,-1.22318 l 0.0274,-1.08986 1.17564,-0.0269 1.17513,-0.0269 v -0.33279 -0.3328 h -1.0139 c -1.40195,0 -1.38492,0.0139 -1.38492,-1.14929 0,-0.65503 0.0372,-0.97486 0.11989,-1.02836 0.066,-0.0427 0.96197,-0.0992 1.99109,-0.12557 l 1.8712,-0.0481 v -0.28784 -0.28783 l -2.27893,-0.0253 z m 48.36139,0.003 v 3.39049 c 0,1.86474 0.0308,3.42079 0.0682,3.45819 0.0374,0.0379 0.15634,0.0557 0.26406,0.0403 0.18614,-0.0266 0.19702,-0.10167 0.22221,-1.50895 0.016,-0.89242 0.0685,-1.53084 0.13179,-1.60714 0.0806,-0.097 0.54792,-0.12661 2.0009,-0.12661 1.45299,0 1.91979,0.0295 2.00039,0.12661 0.0634,0.0763 0.11578,0.71472 0.13179,1.60714 l 0.0263,1.48053 h 0.24028 0.23978 l 0.0253,-3.43028 0.0248,-3.43029 h -0.28886 -0.28888 v 1.32395 c 0,0.90197 -0.0368,1.36131 -0.11524,1.43971 -0.16261,0.16261 -3.82937,0.16261 -3.992,0 -0.0784,-0.0784 -0.11524,-0.53774 -0.11524,-1.43971 v -1.32395 h -0.28784 z m 19.47891,0 v 3.39049 c 0,1.86475 0.0308,3.42079 0.0682,3.45819 0.0374,0.038 0.15635,0.0557 0.26407,0.0403 0.1832,-0.0263 0.19711,-0.10273 0.21911,-1.17977 0.0347,-1.69958 -0.0258,-1.5959 0.91467,-1.5627 l 0.7891,0.0274 1.00821,1.34358 c 0.96531,1.28622 1.02375,1.34488 1.37975,1.37408 0.20452,0.0168 0.40591,-0.005 0.44701,-0.0481 0.0411,-0.0432 -0.37552,-0.61682 -0.92552,-1.27485 -0.54999,-0.65802 -0.98539,-1.24103 -0.96739,-1.29553 0.018,-0.0544 0.26694,-0.1266 0.55294,-0.1602 0.98868,-0.11594 1.06338,-0.22099 1.12448,-1.58492 0.0597,-1.33441 -0.0354,-2.01559 -0.32091,-2.30114 -0.22528,-0.22501 -0.24313,-0.22687 -2.39004,-0.22687 z m 9.49969,0 v 3.39049 c 0,1.86475 0.0308,3.42079 0.0682,3.45819 0.0374,0.038 0.15582,0.0557 0.26355,0.0403 0.19247,-0.0276 0.19638,-0.0879 0.22116,-3.4587 l 0.0253,-3.43029 h -0.28887 z m -68.23667,5.3e-4 c -0.17166,0 -0.17932,0.14058 -0.17932,3.38998 0,1.86474 0.0301,3.42067 0.0672,3.45767 v 5.3e-4 c 0.037,0.0367 0.1343,0.0545 0.216,0.0388 0.12861,-0.0247 0.15488,-0.39308 0.19638,-2.73834 0.0278,-1.5723 0.086,-2.71978 0.13849,-2.73368 0.0498,-0.0131 1.03419,1.18443 2.18798,2.66082 1.15379,1.47639 2.14764,2.71489 2.20813,2.75229 0.0606,0.0374 0.14445,0.0466 0.18656,0.0206 0.0422,-0.026 0.0765,-1.57795 0.0765,-3.44837 V 149.8263 H 122.15 121.91022 v 2.68666 c 0,2.22509 -0.0227,2.68665 -0.1328,2.68665 -0.0731,0 -0.21028,-0.11892 -0.30438,-0.26406 -0.0941,-0.14514 -1.03283,-1.35408 -2.08618,-2.68666 -1.28204,-1.62192 -1.97469,-2.42259 -2.09496,-2.42259 z m 12.72067,0 c -2.24082,0 -2.46658,0.0431 -2.62826,0.50695 -0.15229,0.43677 -0.13192,5.61406 0.0233,5.9216 0.0666,0.132 0.27028,0.2913 0.45371,0.35451 h 5.3e-4 c 0.41518,0.14217 3.64261,0.16488 4.13205,0.0289 0.52656,-0.14627 0.60158,-0.39554 0.64338,-2.13423 l 0.0361,-1.51153 h -1.35755 -1.35805 l 0.03,0.31212 0.0305,0.31161 0.95911,0.0481 0.95964,0.0481 0.0274,1.04748 c 0.0202,0.77364 -0.005,1.06823 -0.0961,1.12603 -0.0678,0.043 -0.94907,0.0793 -1.95854,0.0801 -1.44017,8e-4 -1.85878,-0.0269 -1.94459,-0.13022 -0.0777,-0.093 -0.10181,-0.87594 -0.0837,-2.66288 l 0.0253,-2.53112 2.03915,-0.0259 2.03915,-0.0258 0.002,0.36174 c 0.002,0.51229 0.0989,0.63156 0.41445,0.51159 0.28169,-0.1071 0.31121,-0.27489 0.16226,-0.91778 -0.16205,-0.69946 -0.23366,-0.71933 -2.55126,-0.71933 z m 7.34632,0 v 3.38998 c 0,1.86473 0.0295,3.42002 0.0657,3.45612 h 5.3e-4 c 0.0361,0.036 1.06164,0.0544 2.27893,0.0403 l 2.2133,-0.0258 0.0294,-0.35967 0.03,-0.35967 h -1.90583 c -1.35429,0 -1.93926,-0.0334 -2.02106,-0.11523 -0.16684,-0.16691 -0.15749,-2.12889 0.0108,-2.26859 0.0696,-0.0578 0.61621,-0.11669 1.22369,-0.13179 l 1.09761,-0.0274 0.0294,-0.30385 0.0289,-0.30385 -1.16013,-0.032 c -0.90175,-0.025 -1.181,-0.0644 -1.2516,-0.17622 -0.05,-0.0792 -0.0917,-0.51866 -0.0925,-0.97668 -7.9e-4,-0.63059 0.0352,-0.86922 0.14934,-0.98341 0.12673,-0.12669 0.44851,-0.15088 2.01538,-0.15088 h 1.86396 v -0.33591 -0.33537 h -2.3027 z m 55.35011,0.0475 -1.29035,3.33881 c -0.70945,1.83652 -1.26281,3.38276 -1.2299,3.43597 0.0329,0.0532 0.15117,0.0839 0.26303,0.0677 0.15749,-0.0228 0.27472,-0.21254 0.51883,-0.83974 0.17336,-0.44545 0.36912,-0.84384 0.43512,-0.88574 0.066,-0.042 0.82188,-0.0773 1.67948,-0.078 1.79668,-0.002 1.80436,0.002 2.08617,0.87488 0.23089,0.71523 0.39496,0.94671 0.66921,0.94671 0.12761,0 0.251,-0.0322 0.2744,-0.0718 0.0233,-0.0396 -0.55215,-1.58314 -1.27848,-3.43028 l -1.32031,-3.35825 h -0.40359 z m -14.99237,0.63355 c 0.20204,-5.3e-4 0.4385,0.002 0.71314,0.007 1.88982,0.0374 1.82159,-0.0127 1.82159,1.33377 0,0.77298 -0.0312,0.96887 -0.18345,1.15703 -0.17636,0.21793 -0.23899,0.22749 -1.65519,0.25218 -0.92041,0.0161 -1.53522,-0.0125 -1.64021,-0.0765 -0.14532,-0.0886 -0.16743,-0.2616 -0.16743,-1.28519 0,-0.91117 0.0313,-1.2095 0.13745,-1.29759 0.0733,-0.0613 0.36801,-0.0896 0.9741,-0.091 z m -8.78861,0.0956 c 0.0332,-9e-5 0.0665,0.018 0.10284,0.0543 0.16263,0.16261 1.32074,3.32142 1.26814,3.4587 -0.0357,0.093 -0.38034,0.12351 -1.38079,0.12351 -1.31889,0 -1.33422,-0.002 -1.33222,-0.2155 0.002,-0.25767 1.09137,-3.21836 1.2392,-3.3662 0.0365,-0.0365 0.0697,-0.0547 0.10283,-0.0547 z m 24.17217,0.0114 c 0.15833,0.0305 1.33972,3.01872 1.34773,3.4096 0.005,0.2139 -0.009,0.21602 -1.33326,0.21602 -0.78749,0 -1.36191,-0.0396 -1.39681,-0.0961 -0.0326,-0.0527 0.23181,-0.87475 0.58756,-1.82677 0.48605,-1.30074 0.6836,-1.72415 0.79478,-1.70274 z"
       id="path834-4" />
  </g>
</svg>
