<?xml version="1.0" encoding="UTF-8" standalone="no"?>
<svg
   xmlns:dc="http://purl.org/dc/elements/1.1/"
   xmlns:cc="http://creativecommons.org/ns#"
   xmlns:rdf="http://www.w3.org/1999/02/22-rdf-syntax-ns#"
   xmlns:svg="http://www.w3.org/2000/svg"
   xmlns="http://www.w3.org/2000/svg"
   xmlns:sodipodi="http://sodipodi.sourceforge.net/DTD/sodipodi-0.dtd"
   xmlns:inkscape="http://www.inkscape.org/namespaces/inkscape"
   version="1.1"
   id="Layer_1"
   x="0px"
   y="0px"
   viewBox="0 0 512 512"
   style="enable-background:new 0 0 512 512;"
   xml:space="preserve"
   sodipodi:docname="logo.svg"
   inkscape:version="0.92.4 (5da689c313, 2019-01-14)"><metadata
     id="metadata53"><rdf:RDF><cc:Work
         rdf:about=""><dc:format>image/svg+xml</dc:format><dc:type
           rdf:resource="http://purl.org/dc/dcmitype/StillImage" /></cc:Work></rdf:RDF></metadata><defs
     id="defs51" /><sodipodi:namedview
     pagecolor="#ffffff"
     bordercolor="#666666"
     borderopacity="1"
     objecttolerance="10"
     gridtolerance="10"
     guidetolerance="10"
     inkscape:pageopacity="0"
     inkscape:pageshadow="2"
     inkscape:window-width="1600"
     inkscape:window-height="838"
     id="namedview49"
     showgrid="false"
     inkscape:zoom="0.921875"
     inkscape:cx="-148.80096"
     inkscape:cy="248.5532"
     inkscape:window-x="1366"
     inkscape:window-y="0"
     inkscape:window-maximized="1"
     inkscape:current-layer="Layer_1" /><path
     style="fill:#ACD1FC;"
     d="M434.083,144.811H331.07c-17.499,0-31.68-14.18-31.68-31.68V10.119L434.083,144.811z"
     id="path2" /><path
     style="fill:#518EF8;"
     d="M434.083,144.811v325.39c0,17.499-14.194,31.68-31.68,31.68H109.597    c-17.499,0-31.68-14.18-31.68-31.68V41.799c0-17.499,14.18-31.68,31.68-31.68h189.794v103.013c0,17.499,14.18,31.68,31.68,31.68    H434.083z"
     id="path4" /><path
     style="fill:#333333;"
     d="M441.239,137.656L306.547,2.964C304.649,1.066,302.076,0,299.391,0H109.597    C86.549,0,67.798,18.75,67.798,41.799v428.403c0,23.049,18.751,41.799,41.799,41.799h292.807c23.049,0,41.799-18.75,41.799-41.799    v-325.39C444.202,142.128,443.136,139.553,441.239,137.656z M309.51,34.548l100.144,100.143H331.07    c-11.889,0-21.559-9.671-21.559-21.56V34.548H309.51z M402.403,491.762H109.597c-11.889,0-21.56-9.671-21.56-21.56V41.799    c0-11.888,9.673-21.56,21.56-21.56h179.675v92.893c0,23.047,18.75,41.799,41.797,41.799h92.895v315.271    C423.964,482.091,414.291,491.762,402.403,491.762z"
     id="path6" /><g
     id="g16"><path
   style="fill:#ffffff;stroke-width:0.82948989"
   d="M 340.09559,277.25 H 231.77334 c -5.95417,0 -10.03053,-4.531 -10.03053,-10.119 0,-5.588 4.65163,-10.119 10.22229,-10.119 h 108.13049 c 3.84621,0 6.96241,4.531 6.96241,10.119 0,5.588 -3.1162,10.119 -6.96241,10.119 z"
   id="path8"
   inkscape:connector-curvature="0"
   sodipodi:nodetypes="sssssss" /><path
   style="fill:#FFFFFF;"
   d="M336.939,322.449H175.047c-5.588,0-10.119-4.531-10.119-10.119s4.531-10.119,10.119-10.119h161.892    c5.59,0,10.119,4.531,10.119,10.119S342.529,322.449,336.939,322.449z"
   id="path10" /><path
   style="fill:#FFFFFF;"
   d="M336.939,367.647H175.047c-5.588,0-10.119-4.531-10.119-10.119s4.531-10.119,10.119-10.119h161.892    c5.59,0,10.119,4.531,10.119,10.119S342.529,367.647,336.939,367.647z"
   id="path12" /><path
   style="fill:#ffffff"
   d="M 281.64839,412.846 H 175.047 c -5.588,0 -10.119,-4.531 -10.119,-10.119 0,-5.588 4.531,-10.119 10.119,-10.119 h 106.60139 c 8.08285,0 12.80361,4.531 12.80361,10.119 0,5.588 -3.57021,10.119 -12.80361,10.119 z"
   id="path14"
   inkscape:connector-curvature="0"
   sodipodi:nodetypes="sssssss" />
            <path
   inkscape:connector-curvature="0"
   id="path884"
   d="m 199.79009,277.25 h -25.67322 c -4.82713,0 -9.18887,-4.531 -9.18887,-10.119 0,-5.588 4.55349,-10.119 9.28475,-10.119 h 25.48146 c 6.93695,0 10.06522,4.531 10.06522,10.119 0,5.588 -4.56645,10.119 -9.96934,10.119 z"
   style="fill:#ffffff;stroke-width:0.4961358"
   sodipodi:nodetypes="sssssss" /><path
   sodipodi:nodetypes="sssssss"
   style="fill:#ffffff;stroke-width:0.4961358"
   d="m 337.08866,412.846 h -25.67322 c -4.82713,0 -9.18887,-4.531 -9.18887,-10.119 0,-5.588 4.55349,-10.119 9.28475,-10.119 h 25.48146 c 6.93695,0 10.06522,4.531 10.06522,10.119 0,5.588 -4.56645,10.119 -9.96934,10.119 z"
   id="path886"
   inkscape:connector-curvature="0" /><path
   sodipodi:nodetypes="sssssss"
   style="fill:#ffffff;stroke-width:0.4961358"
   d="M 279.79009,237.25 H 174.11687 c -4.82713,0 -9.18887,-4.531 -9.18887,-10.119 0,-5.588 4.55349,-10.119 9.28475,-10.119 h 105.48146 c 6.93695,0 10.06522,4.531 10.06522,10.119 0,5.588 -4.56645,10.119 -9.96934,10.119 z"
   id="path836"
   inkscape:connector-curvature="0" /></g><g
     id="g18" /><g
     id="g20" /><g
     id="g22" /><g
     id="g24" /><g
     id="g26" /><g
     id="g28" /><g
     id="g30" /><g
     id="g32" /><g
     id="g34" /><g
     id="g36" /><g
     id="g38" /><g
     id="g40" /><g
     id="g42" /><g
     id="g44" /><g
     id="g46" /></svg>