<?xml version="1.0" encoding="UTF-8" standalone="no"?>
<svg
   xmlns:dc="http://purl.org/dc/elements/1.1/"
   xmlns:cc="http://creativecommons.org/ns#"
   xmlns:rdf="http://www.w3.org/1999/02/22-rdf-syntax-ns#"
   xmlns:svg="http://www.w3.org/2000/svg"
   xmlns="http://www.w3.org/2000/svg"
   xmlns:sodipodi="http://sodipodi.sourceforge.net/DTD/sodipodi-0.dtd"
   xmlns:inkscape="http://www.inkscape.org/namespaces/inkscape"
   version="1.1"
   width="747.16888"
   height="271.75034"
   id="svg52"
   sodipodi:docname="PERSONAL CAR - CURVA.svg"
   inkscape:version="0.92.3 (2405546, 2018-03-11)">
  <metadata
     id="metadata58">
    <rdf:RDF>
      <cc:Work
         rdf:about="">
        <dc:format>image/svg+xml</dc:format>
        <dc:type
           rdf:resource="http://purl.org/dc/dcmitype/StillImage" />
        <dc:title></dc:title>
      </cc:Work>
    </rdf:RDF>
  </metadata>
  <defs
     id="defs56" />
  <sodipodi:namedview
     pagecolor="#ffffff"
     bordercolor="#666666"
     borderopacity="1"
     objecttolerance="10"
     gridtolerance="10"
     guidetolerance="10"
     inkscape:pageopacity="0"
     inkscape:pageshadow="2"
     inkscape:window-width="1366"
     inkscape:window-height="743"
     id="namedview54"
     showgrid="false"
     fit-margin-top="0"
     fit-margin-left="0"
     fit-margin-right="0"
     fit-margin-bottom="0"
     inkscape:zoom="0.79291007"
     inkscape:cx="282.0729"
     inkscape:cy="29.390496"
     inkscape:window-x="0"
     inkscape:window-y="0"
     inkscape:window-maximized="1"
     inkscape:current-layer="Layer1001" />
  <g
     id="Layer1000"
     transform="translate(-27.408533,-169.16015)">
    <g
       id="Layer1001">
      <g
         id="Layer1002">
        <path
           d="m 152.583,423.0842 c 6.825,0.2863 13.6395,0.1292 20.4441,-0.4708 -137.7502,-14.7501 -145.3136,-213.2502 0,-235.5001 -9.2628,-0.8193 -16.138,-0.7881 -20.6255,0.0935 -6.2501,-11.8208 -9.375,-17.731 -9.375,-17.731 -14.4757,2.6039 -24.7258,5.5142 -30.7503,8.731 0.4998,13.1253 0.7498,19.6878 0.7498,19.6878 -7.835,3.6527 -13.7724,7.1214 -17.8126,10.4062 -7.1796,-5.0337 -12.8359,-8.5337 -16.9688,-10.5001 -8.9121,6.8457 -16.4123,14.4082 -22.5003,22.6874 4.199,7.3029 7.7301,12.803 10.594,16.5002 -5.8584,8.3792 -9.2645,14.4731 -10.2189,18.2812 -13.6877,-0.4374 -20.5317,-0.6562 -20.5317,-0.6562 -4.064,9.9864 -6.4077,20.3612 -7.031,31.1249 10.8751,5.8751 16.3125,8.8127 16.3125,8.8127 -0.4376,7.0982 -0.3753,14.1919 0.1874,21.2814 -11.5622,6 -17.3432,9 -17.3432,9 1.2917,10.6942 4.1666,20.944 8.6244,30.7499 12.8752,-0.375 19.3127,-0.5624 19.3127,-0.5624 2.5807,6.5883 6.3233,12.3851 10.8057,17.8594 -4.248,5.2005 -7.7267,10.8729 -10.436,17.017 6.3776,8.3021 13.6902,15.6772 21.9376,22.1255 11.4998,-6.9999 17.2499,-10.4998 17.2499,-10.4998 5.36,4.4118 11.2351,7.9744 17.6253,10.6875 -0.25,13.5 -0.3751,20.2498 -0.3751,20.2498 10.0531,3.6995 20.3656,6.4123 30.9377,8.1386 6.1248,-11.6757 9.1873,-17.5136 9.1873,-17.5136 z"
           style="fill:#1b1918;fill-rule:evenodd;stroke:#1b1918;stroke-width:0.56690001;stroke-linecap:butt;stroke-linejoin:miter;stroke-dasharray:none"
           id="path31"
           inkscape:connector-curvature="0" />
        <path
           style="fill:#1b1918;fill-rule:evenodd;stroke:#1b1918;stroke-width:0.56690001;stroke-linecap:butt;stroke-linejoin:miter;stroke-dasharray:none"
           d="m 175.82422,221.59766 c -24.407,-0.0124 -36.68269,12.5147 -56.80078,54.16015 -14.3991,6.3108 -18.54054,23.01935 -17.92774,43.58985 0.6168,20.7065 0.84306,39.52281 28.56446,41.57031 7.9716,0.5888 7.28142,-0.12891 15.98632,-0.12891 7.352,-8.6797 15.50332,-23.23828 25.41602,-23.23828 9.1605,0 18.20499,-0.10547 34.67969,-0.10547 v 5.8125 c -22.0116,0 -19.71687,-0.0749 -33.88477,-0.24414 -7.2983,-0.0873 -10.36921,7.94374 -19.50781,17.39844 32.7778,0.0887 44.95038,0.18412 54.05078,0.0996 2.5503,-0.0235 2.91406,-0.22581 2.91406,-4.50391 0,-43.6496 0,-68.55635 0.125,-79.78125 0.0329,-2.9571 -2.48619,-3.9728 -4.21679,-3.6582 0,0 -24.40615,-0.0297 -73.21875,-0.0918 17.0161,-32.5593 21.2663,-43.4343 54.375,-41.625 2.6597,0.1834 2.68533,-8.37969 0.70703,-8.52929 -4.04008,-0.4652 -7.77501,-0.72284 -11.26172,-0.72461 z m -44.87891,61.45898 c 0.6562,0.0312 1.28133,0.37508 4.51563,2.29688 3.2343,1.9219 9.07807,5.42185 12.54687,7.34375 3.4687,1.9218 4.5625,2.26537 5.8125,2.54687 1.2501,0.2812 2.65625,0.50128 11.15625,0.58008 8.4999,0.0788 24.09449,0.0167 32.05469,-0.0176 7.9603,-0.0346 8.28567,-0.0419 8.48047,-0.0469 0.1944,-0.005 0.25756,-0.005 0.28906,0.0293 0.0317,0.0343 0.0311,0.10365 0.0391,1.06055 0.008,0.957 0.0232,2.80081 0.0312,3.75391 0.008,0.953 0.007,1.01597 -0.0234,1.04687 -0.0309,0.0309 -0.0944,0.031 -8.14063,-0.0312 -8.0461,-0.0627 -24.07502,-0.18795 -32.94922,-0.28125 -8.8744,-0.0935 -10.59395,-0.15632 -12.09375,-0.45312 -1.5001,-0.2967 -2.78137,-0.82825 -6.42187,-2.84375 -3.6408,-2.0157 -9.64068,-5.5159 -13.04688,-7.5625 -3.4063,-2.0469 -4.21892,-2.64073 -4.70312,-3.07813 -0.4844,-0.4373 -0.6407,-0.7188 -0.6875,-1.125 -0.0471,-0.4062 0.0156,-0.93765 0.21875,-1.40625 0.203,-0.4689 0.5469,-0.87525 1.0625,-1.21875 0.5156,-0.3439 1.20317,-0.62525 1.85937,-0.59375 z m -12.14843,12.52734 c 0.71092,0.0117 1.45315,0.0664 2.15624,0.17579 1.40632,0.2185 2.6561,0.65635 4.375,1.46875 1.7187,0.8124 3.90631,2.0017 6.25,3.4707 2.34371,1.4686 4.84375,3.21665 6.78126,4.68555 1.93738,1.4687 3.31235,2.65805 4.53124,3.87695 1.21871,1.2186 2.28125,2.4668 3.15626,3.4668 0.87478,1.0001 1.56245,1.74985 2.03124,2.71875 0.46862,0.9686 0.71864,2.15805 0.65626,3.12695 -0.0626,0.9686 -0.43762,1.7186 -1,2.3125 -0.56272,0.5935 -1.31264,1.03135 -2.28126,1.34375 -0.96879,0.3124 -2.15638,0.4981 -3.625,0.6543 -1.46888,0.1562 -3.21879,0.2831 -5.1875,0.2207 -1.96888,-0.0626 -4.15629,-0.3145 -6.375,-0.7207 -2.21898,-0.4062 -4.46886,-0.96885 -6.59374,-1.65625 -2.12512,-0.6874 -4.12525,-1.50015 -5.90626,-2.46875 -1.7813,-0.9689 -3.34396,-2.0918 -4.59374,-3.2168 -1.25011,-1.1251 -2.18775,-2.2499 -2.90626,-3.75 -0.71889,-1.5001 -1.2189,-3.37505 -1.4375,-5.09375 -0.21878,-1.7189 -0.15646,-3.28315 0.28126,-4.56445 0.43738,-1.2813 1.25006,-2.27945 2.15624,-3.12305 0.90632,-0.8439 1.90615,-1.53335 2.78126,-2.00195 0.8751,-0.4688 1.62496,-0.71875 2.78124,-0.84375 0.57811,-0.0625 1.25782,-0.0938 1.96876,-0.082 z"
           id="path33"
           inkscape:connector-curvature="0" />
        <path
           d="m 98.4212,257.0956 c 8.9574,0 16.2187,4.1972 16.2187,9.375 0,5.1777 -7.2613,9.375 -16.2187,9.375 -8.9575,0 -16.2187,-4.1973 -16.2187,-9.375 0,-5.1778 7.2612,-9.375 16.2187,-9.375 z"
           style="fill:#1b1918;fill-rule:evenodd;stroke:#1b1918;stroke-width:0.56690001;stroke-linecap:butt;stroke-linejoin:miter;stroke-dasharray:none"
           id="path35"
           inkscape:connector-curvature="0" />
        <path
           d="m 140.548,366.355 c 0.1579,0.1641 0.1613,0.4765 0.1769,1.9142 0.0155,1.4375 0.0433,3.9997 -0.099,5.7654 -0.1423,1.7657 -0.4549,2.7343 -0.9862,3.9532 -0.5312,1.2186 -1.2812,2.6875 -1.9998,3.6094 -0.7189,0.9218 -1.4065,1.2968 -5.7189,1.453 -4.3126,0.1562 -12.2502,0.0938 -16.4064,-0.0468 -4.1564,-0.1408 -4.5311,-0.3594 -5.2341,-1.125 -0.7033,-0.7657 -1.7348,-2.0781 -2.4378,-3.5 -0.7033,-1.4218 -1.078,-2.9531 -1.2969,-6.7031 -0.2188,-3.7499 -0.2812,-9.7188 -0.3124,-12.7031 -0.0314,-2.9844 -0.0314,-2.9844 0.1092,-2.8593 0.1406,0.125 0.4221,0.3747 1.0783,0.9685 0.6562,0.5936 1.6874,1.5313 2.8281,2.4532 1.1407,0.9218 2.3905,1.828 3.9688,2.6719 1.578,0.8436 3.4843,1.6251 5.3127,2.2813 1.8281,0.6562 3.5779,1.1874 6.781,1.4375 3.2032,0.25 7.8596,0.2185 10.3442,0.2109 2.4843,-0.008 2.7967,0.008 3.1093,0.0235 0.3124,0.0156 0.6251,0.0312 0.783,0.1953 z"
           style="fill:#1b1918;fill-rule:evenodd;stroke:#1b1918;stroke-width:0.56690001;stroke-linecap:butt;stroke-linejoin:miter;stroke-dasharray:none"
           id="path37"
           inkscape:connector-curvature="0" />
      </g>
      <g
         id="Layer1003" />
    </g>
    <g
       id="Layer1004">
      <path
         d="m 221.3444,361.6824 h -7.2952 V 305.913 h 36.2849 v -10.0316 h -36.2849 v -23.2939 h 35.261 c 1.0667,0 2.101,0.5383 3.1037,1.6151 1.0026,1.0769 1.8878,2.5787 2.6557,4.5057 0.7679,1.927 1.376,4.3359 1.8238,7.2264 0.4479,2.8905 0.6721,6.0928 0.6721,9.6066 v 12.5821 c 0,2.9472 -0.2134,5.6393 -0.64,8.0762 -0.4266,2.4373 -0.9919,4.5627 -1.696,6.3763 -0.7038,1.8136 -1.5145,3.202 -2.4315,4.1655 -0.9173,0.9635 -1.8667,1.4454 -2.848,1.4454 h -28.6056 z m 41.2127,0 V 305.913 h 43.5163 v 22.2738 h -36.2211 v 10.0315 h 36.2211 v 23.4641 z m 43.5163,-65.801 h -43.5163 v -23.2939 h 43.5163 z m 12.2868,65.801 h -7.2953 V 305.913 h 36.2849 v -10.0316 h -36.2849 v -23.2939 h 35.2611 c 1.0666,0 2.101,0.5383 3.1036,1.6151 1.0026,1.0769 1.8879,2.5787 2.6558,4.5057 0.7679,1.927 1.3759,4.3359 1.8238,7.2264 0.4479,2.8905 0.6721,6.0928 0.6721,9.6066 v 12.5821 c 0,2.9472 -0.2135,5.6393 -0.6401,8.0762 -0.4266,2.4373 -0.9918,4.5627 -1.6959,6.3763 -0.7039,1.8136 -1.5146,3.202 -2.4316,4.1655 -0.9173,0.9635 -1.8666,1.4454 -2.848,1.4454 h -0.3838 l 7.9994,33.4956 h -7.9994 l -8.4472,-33.4956 h -19.7745 z m 77.4975,-33.4956 h -28.6696 c -0.9811,0 -1.9304,-0.4819 -2.8477,-1.4454 -0.9173,-0.9635 -1.728,-2.3519 -2.4318,-4.1655 -0.7039,-1.8136 -1.2694,-3.939 -1.696,-6.3763 -0.4263,-2.4369 -0.6398,-5.129 -0.6398,-8.0762 v -12.5821 c 0,-3.5138 0.2344,-6.7161 0.7039,-9.6066 0.4694,-2.8905 1.0879,-5.2994 1.8558,-7.2264 0.7679,-1.927 1.6532,-3.4288 2.6558,-4.5057 1.0026,-1.0768 2.0372,-1.6151 3.1036,-1.6151 h 35.1973 v 23.2939 h -36.2211 v 10.2017 h 28.6055 c 0.9814,0 1.9304,0.4816 2.848,1.4451 0.917,0.9635 1.7277,2.3521 2.4315,4.1658 0.7042,1.8136 1.2694,3.939 1.696,6.3759 0.4266,2.4372 0.6401,5.1293 0.6401,8.0765 v 12.5821 c 0,3.6272 -0.2243,6.8579 -0.6721,9.6917 -0.4479,2.8338 -1.0559,5.214 -1.8238,7.141 -0.7679,1.927 -1.6532,3.4291 -2.6558,4.506 -1.0026,1.0769 -2.0373,1.6152 -3.1037,1.6152 h -35.261 v -23.294 h 36.2849 z m 55.7393,-32.4754 v 43.0171 c 0,3.6272 -0.2242,6.8579 -0.6721,9.6917 -0.4478,2.8338 -1.0559,5.214 -1.8238,7.141 -0.7679,1.927 -1.6531,3.4291 -2.6557,4.506 -1.0027,1.0769 -2.0373,1.6152 -3.1037,1.6152 h -26.9419 c -1.0664,0 -2.101,-0.5383 -3.1036,-1.6152 -1.0027,-1.0769 -1.8879,-2.579 -2.6558,-4.506 -0.7679,-1.927 -1.3864,-4.3072 -1.8559,-7.141 -0.4694,-2.8338 -0.7038,-6.0645 -0.7038,-9.6917 v -43.0171 c 0,-3.5141 0.2452,-6.7162 0.7359,-9.6066 0.4906,-2.8905 1.1304,-5.3278 1.9199,-7.3114 0.7891,-1.9837 1.6852,-3.5139 2.6875,-4.5908 1.0029,-1.0768 1.9947,-1.6151 2.9758,-1.6151 h 26.9419 c 0.9811,0 1.9624,0.5383 2.9435,1.6151 0.9814,1.0769 1.8666,2.6071 2.6561,4.5908 0.7891,1.9836 1.4289,4.4209 1.9196,7.3114 0.4907,2.8904 0.7361,6.0925 0.7361,9.6066 z m -11.7751,0.17 h -19.9664 c -1.6211,0 -2.7731,1.1617 -3.4557,3.4855 -0.6826,2.3236 -1.0239,5.6393 -1.0239,9.9468 v 15.3026 c 0,4.7607 0.3308,8.2179 0.9919,10.3716 0.6613,2.1538 1.8025,3.2304 3.4239,3.2304 h 20.0943 c 1.6211,0 2.7728,-1.1333 3.4557,-3.4004 0.6826,-2.2672 1.0239,-5.6676 1.0239,-10.2016 v -15.3026 c 0,-4.3075 -0.3521,-7.6232 -1.0559,-9.9468 -0.7039,-2.3238 -1.8666,-3.4855 -3.4878,-3.4855 z m 24.0619,0.1698 v 65.6312 h -7.2952 v -89.0949 h 35.261 c 1.0664,0 2.101,0.5383 3.1036,1.6151 1.0026,1.0769 1.8879,2.5787 2.6558,4.5057 0.7679,1.927 1.3759,4.3359 1.8238,7.2264 0.4479,2.8905 0.6721,6.0928 0.6721,9.6066 v 66.1411 h -7.2315 v -52.0288 c 0,-4.7608 -0.3412,-8.2179 -1.0238,-10.3717 -0.6829,-2.1538 -1.8346,-3.2307 -3.4557,-3.2307 z m 77.4975,32.1356 h -28.9896 v 33.4956 h -7.2953 V 305.913 h 36.2849 v -10.0316 h -36.2211 v -0.6803 c 0,-3.5138 0.2455,-6.6877 0.7362,-9.5215 0.4907,-2.8338 1.1304,-5.2141 1.9199,-7.1411 0.7891,-1.927 1.6849,-3.4007 2.6875,-4.4209 1.0026,-1.0202 1.9948,-1.5301 2.9758,-1.5301 h 26.8778 c 0.9811,0 1.9625,0.5099 2.9435,1.5301 0.9814,1.0202 1.8667,2.4939 2.6558,4.4209 0.7895,1.927 1.4293,4.3073 1.9199,7.1411 0.4907,2.8338 0.7362,6.0077 0.7362,9.5215 v 66.4813 h -7.2315 z m 19.5183,10.0315 h 36.2211 v 23.4641 h -43.5164 v -89.0949 h 7.2953 z m 116.6621,0 v 23.4641 h -35.197 c -1.0667,0 -2.1013,-0.5383 -3.1036,-1.6152 -1.0029,-1.0769 -1.8879,-2.579 -2.6558,-4.506 -0.7682,-1.927 -1.3867,-4.3072 -1.8559,-7.141 -0.4694,-2.8338 -0.7041,-6.0645 -0.7041,-9.6917 v -43.0171 c 0,-3.5141 0.2452,-6.7162 0.7359,-9.6066 0.4907,-2.8905 1.1307,-5.3278 1.9199,-7.3114 0.7895,-1.9837 1.6852,-3.5139 2.6878,-4.5908 1.0026,-1.0768 1.9945,-1.6151 2.9758,-1.6151 h 35.197 v 23.2939 h -31.7413 c -1.6211,0 -2.7731,1.1617 -3.4557,3.4855 -0.6826,2.3236 -1.0238,5.6393 -1.0238,9.9468 v 15.3026 c 0,4.7607 0.3305,8.2179 0.9918,10.3716 0.6613,2.1538 1.8025,3.2304 3.4237,3.2304 z m 41.2764,-10.0315 h -28.9894 v 33.4956 h -7.2955 V 305.913 h 36.2849 v -10.0316 h -36.2208 v -0.6803 c 0,-3.5138 0.2452,-6.6877 0.7358,-9.5215 0.4907,-2.8338 1.1308,-5.2141 1.9199,-7.1411 0.7892,-1.927 1.6852,-3.4007 2.6879,-4.4209 1.0026,-1.0202 1.9944,-1.5301 2.9758,-1.5301 h 26.8775 c 0.9814,0 1.9624,0.5099 2.9438,1.5301 0.9813,1.0202 1.8663,2.4939 2.6558,4.4209 0.7891,1.927 1.4292,4.3073 1.9199,7.1411 0.4904,2.8338 0.7358,6.0077 0.7358,9.5215 v 66.4813 h -7.2314 z m 19.5185,33.4956 h -7.2955 V 305.913 h 36.2849 v -10.0316 h -36.2849 v -23.2939 h 35.261 c 1.0667,0 2.1013,0.5383 3.1036,1.6151 1.0026,1.0769 1.8879,2.5787 2.6558,4.5057 0.7682,1.927 1.3759,4.3359 1.8241,7.2264 0.4479,2.8905 0.6718,6.0928 0.6718,9.6066 v 12.5821 c 0,2.9472 -0.2134,5.6393 -0.64,8.0762 -0.4267,2.4373 -0.9919,4.5627 -1.6957,6.3763 -0.7042,1.8136 -1.5146,3.202 -2.4319,4.1655 -0.9173,0.9635 -1.8666,1.4454 -2.8477,1.4454 h -0.3841 l 7.9994,33.4956 h -7.9994 l -8.4472,-33.4956 h -19.7742 z"
         style="fill:#1b1918;fill-rule:evenodd"
         id="path46"
         inkscape:connector-curvature="0" />
      <path
         d="m 221.8054,368.2043 c 5.7945,0 5.7945,8.953 0,8.953 h -6.2918 v -8.953 z m 0,10.1716 c 7.5602,0 7.5602,-11.4151 0,-11.4151 -2.5368,0 -5.0982,0 -7.6349,0 v 17.4336 h 1.3431 v -6.0185 z m 45.1941,6.0185 -7.8089,-17.4336 h -1.4672 l -7.8091,17.4336 h 1.4425 l 1.8899,-4.2775 h 10.3955 l 1.9151,4.2775 z m -13.2304,-5.521 4.6755,-10.6152 4.6754,10.6152 z m 37.8079,5.521 v -17.4336 h -1.3181 v 17.4336 z m 53.0221,-16.1651 h 10.6937 v -1.2685 H 343.281 v 17.4336 h 12.3103 v -1.2932 h -10.9922 v -6.8641 h 10.1965 v -1.2186 h -10.1965 z m 63.1689,0.0745 h 10.3706 v -1.343 H 406.425 v 17.4336 h 1.343 v -7.8588 h 10.0222 v -1.2682 H 407.768 Z m 36.1914,16.0906 v -17.4336 h -1.3181 v 17.4336 z m 25.0996,-17.4336 v 17.4336 h 11.1416 v -1.2682 h -9.7985 v -16.1654 z m 48.7505,17.4336 v -17.4336 h -1.3427 v 8.3066 h -11.092 v -8.3066 h -1.3428 v 17.4336 h 1.3428 v -7.9084 h 11.092 v 7.9084 z m 33.1325,-17.6822 c -5.8691,0 -8.7789,4.2774 -8.7789,8.9529 0,4.6009 2.9347,9.0278 8.7789,9.0278 5.8445,0 8.754,-4.4019 8.7789,-8.9779 0.025,-4.7004 -2.9098,-9.0028 -8.7789,-9.0028 z m 0,1.2435 c 4.9989,0 7.4857,3.7055 7.4857,7.7343 0,3.9294 -2.5117,7.7593 -7.4857,7.7593 -4.949,0 -7.4358,-3.8299 -7.4608,-7.7593 -0.0249,-4.1034 2.4622,-7.7343 7.4608,-7.7343 z m 46.1146,1.7408 c -1.7161,-2.5614 -3.8798,-2.9594 -6.3666,-2.9594 -2.8602,0 -6.6901,1.1441 -6.6155,4.8246 0,3.2082 3.2581,3.8548 6.4412,4.4764 2.8601,0.5474 5.7449,1.1192 5.72,3.7304 0,3.0838 -3.407,3.6808 -5.5457,3.6808 -2.139,0 -4.8745,-1.0445 -5.944,-3.1583 l -1.1937,0.5969 c 1.3431,2.6609 4.4269,3.78 7.1377,3.78 2.9095,0 6.8638,-0.945 6.8887,-4.8744 0,-3.7554 -3.4818,-4.3521 -6.8391,-4.9986 -2.9347,-0.5471 -5.3221,-1.0695 -5.3221,-3.2828 0,-2.7854 3.233,-3.5314 5.2725,-3.5314 1.9647,0.0246 4.0039,0.3231 5.2721,2.3624 z"
         style="fill:#1b1918;fill-rule:evenodd"
         id="path48"
         inkscape:connector-curvature="0" />
    </g>
  </g>
</svg>
