<?xml version="1.0" encoding="UTF-8" standalone="no"?>
<!-- Created with Inkscape (http://www.inkscape.org/) -->

<svg
   xmlns:dc="http://purl.org/dc/elements/1.1/"
   xmlns:cc="http://creativecommons.org/ns#"
   xmlns:rdf="http://www.w3.org/1999/02/22-rdf-syntax-ns#"
   xmlns:svg="http://www.w3.org/2000/svg"
   xmlns="http://www.w3.org/2000/svg"
   xmlns:sodipodi="http://sodipodi.sourceforge.net/DTD/sodipodi-0.dtd"
   xmlns:inkscape="http://www.inkscape.org/namespaces/inkscape"
   version="1.1"
   id="svg968"
   width="989.81561"
   height="492.8266"
   viewBox="0 0 989.81561 492.8266"
   sodipodi:docname="ctc-logo.svg"
   inkscape:version="0.92.3 (2405546, 2018-03-11)">
  <metadata
     id="metadata974">
    <rdf:RDF>
      <cc:Work
         rdf:about="">
        <dc:format>image/svg+xml</dc:format>
        <dc:type
           rdf:resource="http://purl.org/dc/dcmitype/StillImage" />
        <dc:title />
      </cc:Work>
    </rdf:RDF>
  </metadata>
  <defs
     id="defs972" />
  <sodipodi:namedview
     pagecolor="#ffffff"
     bordercolor="#666666"
     borderopacity="1"
     objecttolerance="10"
     gridtolerance="10"
     guidetolerance="10"
     inkscape:pageopacity="0"
     inkscape:pageshadow="2"
     inkscape:window-width="1600"
     inkscape:window-height="842"
     id="namedview970"
     showgrid="false"
     showguides="true"
     inkscape:guide-bbox="true"
     fit-margin-top="0"
     fit-margin-left="0"
     fit-margin-right="0"
     fit-margin-bottom="0"
     inkscape:zoom="0.90321844"
     inkscape:cx="412.87794"
     inkscape:cy="184.19248"
     inkscape:window-x="1366"
     inkscape:window-y="0"
     inkscape:window-maximized="1"
     inkscape:current-layer="g995" />
  <g
     id="g1041"
     transform="translate(-17.783079,-243.18295)">
    <path
       sodipodi:nodetypes="cssccccsccssc"
       inkscape:connector-curvature="0"
       id="path1022"
       d="m 185.94654,723.85566 c 20.33264,0.9902 54.40602,9.1342 76.97684,6.74909 162.15359,-17.13511 317.05698,-314.3985 -27.75621,-396.4245 -3.43535,-0.81722 -12.55092,-21.95949 -16.13009,-24.00291 -15.62079,-18.4036 -46.32902,-62.77377 -46.32902,-62.77377 l 693.42441,1.78005 c 0,0 -43.70986,58.83955 -59.72018,79.11371 -7.646,9.68227 -15.08906,26.74834 -22.95803,28.28047 -337.75732,65.76339 -186.4903,359.1499 -4.74164,370.85731 19.66091,3.69991 99.76636,-4.75309 45.32684,-5.90406 -12.97004,-0.27451 -5.0009,9.76478 -26.83342,9.30057 -29.56494,-0.62863 -596.3383,4.67861 -600.32174,-4.39715 -5.05823,-11.52454 -40.42498,-5.71637 -10.93776,-2.57881 z"
       style="display:inline;fill:#f90000;fill-opacity:1;stroke:#000000;stroke-width:8.39999962;stroke-linecap:butt;stroke-linejoin:miter;stroke-miterlimit:4;stroke-dasharray:none;stroke-opacity:1" />
    <g
       transform="translate(-6.8685016,-6.2630015)"
       id="g1004">
      <g
         aria-label="C"
         style="font-style:normal;font-weight:normal;font-size:99.70894623px;line-height:1.25;font-family:sans-serif;letter-spacing:0px;word-spacing:0px;fill:#000000;fill-opacity:1;stroke:none;stroke-width:2.49272346"
         id="text980">
        <path
           d="m 925.85508,608.20252 40.09005,0.60751 c -4.88683,11.26819 -13.05443,22.533 -13.05443,22.533 -4.94268,7.5864 -11.36473,13.7529 -17.35066,19.86932 -36.129,36.91657 -79.63039,55.37485 -130.50416,55.37485 -24.61565,0 -48.21862,-4.67386 -70.80893,-14.02157 -22.43451,-9.34771 -41.83102,-21.88923 -58.18952,-37.62454 -16.20271,-15.73532 -29.13371,-34.50865 -38.79301,-56.31998 -9.65931,-21.96713 -14.48896,-45.02482 -14.48896,-69.17308 0,-24.14826 4.82965,-47.20595 14.48896,-69.17308 9.6593,-21.96713 22.5903,-40.89625 38.79301,-56.78736 16.3585,-15.89111 35.75501,-28.51053 58.18952,-37.85824 22.59031,-9.34771 46.19328,-14.02157 70.80893,-14.02157 12.46361,0 24.53774,1.16846 36.22239,3.50539 11.68464,2.33693 21.96712,5.29704 30.84745,8.88033 8.88033,3.42749 17.52696,7.71186 25.93991,12.85311 8.41294,5.14124 15.42372,10.04879 21.03235,14.72265 5.60863,4.51806 11.13936,9.6593 16.59219,15.42372 5.45283,5.60863 9.50351,10.0488 12.15203,13.3205 2.64852,3.1159 13.7001,20.09522 18.28951,31.57144 l -39.78925,-0.0229 c -4.20647,-5.29704 -7.63397,-9.50351 -10.28248,-12.61941 -2.64852,-3.11591 -8.10135,-8.33505 -16.3585,-15.65742 -8.10135,-7.32238 -16.12481,-13.1647 -24.07037,-17.52697 -7.94555,-4.51806 -18.30593,-8.64663 -31.08114,-12.38572 -12.61941,-3.73909 -25.78411,-5.60863 -39.49409,-5.60863 -19.78599,0 -38.63722,3.73909 -56.55367,11.21726 -17.91645,7.47817 -33.34018,17.52697 -46.27118,30.14638 -12.93101,12.61941 -23.21349,27.73155 -30.84746,45.33641 -7.47817,17.44907 -11.21725,35.8329 -11.21725,55.15151 0,19.16281 3.73908,37.46875 11.21725,54.91781 7.63397,17.44907 17.83855,32.56121 30.61376,45.33642 12.93101,12.61941 28.35474,22.6682 46.27119,30.14637 18.07225,7.47817 37.00137,11.21726 56.78736,11.21726 13.55418,0 26.56308,-1.79165 39.0267,-5.37494 12.61941,-3.58329 23.05769,-7.71186 31.31484,-12.38572 8.25715,-4.67385 16.2027,-10.36038 23.83667,-17.05957 7.78976,-6.6992 13.32049,-11.99624 16.59219,-15.89112 3.4275,-3.89488 6.7771,-8.10135 10.0488,-12.61941 z"
           style="font-style:normal;font-variant:normal;font-weight:bold;font-stretch:normal;font-size:478.60293579px;font-family:Sawasdee;-inkscape-font-specification:'Sawasdee, Bold';font-variant-ligatures:normal;font-variant-caps:normal;font-variant-numeric:normal;font-feature-settings:normal;text-align:start;writing-mode:lr-tb;text-anchor:start;opacity:0.98999999;fill:#007900;fill-opacity:1;stroke:#000000;stroke-width:5.1401577;stroke-linecap:square;stroke-miterlimit:4;stroke-dasharray:none;stroke-opacity:1"
           id="path982"
           inkscape:connector-curvature="0"
           sodipodi:nodetypes="ccssscccssccsscscccccscccssscscccscsccc" />
        <path
           sodipodi:nodetypes="ccssscccssccsscscccccscccssscscccscsccc"
           inkscape:connector-curvature="0"
           id="path985"
           style="font-style:normal;font-variant:normal;font-weight:bold;font-stretch:normal;font-size:478.60293579px;font-family:Sawasdee;-inkscape-font-specification:'Sawasdee, Bold';font-variant-ligatures:normal;font-variant-caps:normal;font-variant-numeric:normal;font-feature-settings:normal;text-align:start;writing-mode:lr-tb;text-anchor:start;opacity:0.98999999;fill:#007900;fill-opacity:1;stroke:#000000;stroke-width:69.39212799;stroke-linecap:square;stroke-miterlimit:4;stroke-dasharray:none;stroke-opacity:1"
           d="m 921.85508,608.20252 40.09005,0.60751 c -4.88683,11.26819 -13.05443,22.533 -13.05443,22.533 -4.94268,7.5864 -11.36473,13.7529 -17.35066,19.86932 -36.129,36.91657 -79.63039,55.37485 -130.50416,55.37485 -24.61565,0 -48.21862,-4.67386 -70.80893,-14.02157 -22.43451,-9.34771 -41.83102,-21.88923 -58.18952,-37.62454 -16.20271,-15.73532 -29.13371,-34.50865 -38.79301,-56.31998 -9.65931,-21.96713 -14.48896,-45.02482 -14.48896,-69.17308 0,-24.14826 4.82965,-47.20595 14.48896,-69.17308 9.6593,-21.96713 22.5903,-40.89625 38.79301,-56.78736 16.3585,-15.89111 35.75501,-28.51053 58.18952,-37.85824 22.59031,-9.34771 46.19328,-14.02157 70.80893,-14.02157 12.46361,0 24.53774,1.16846 36.22239,3.50539 11.68464,2.33693 21.96712,5.29704 30.84745,8.88033 8.88033,3.42749 17.52696,7.71186 25.93991,12.85311 8.41294,5.14124 15.42372,10.04879 21.03235,14.72265 5.60863,4.51806 11.13936,9.6593 16.59219,15.42372 5.45283,5.60863 9.50351,10.0488 12.15203,13.3205 2.64852,3.1159 13.7001,20.09522 18.28951,31.57144 l -39.78925,-0.0229 c -4.20647,-5.29704 -7.63397,-9.50351 -10.28248,-12.61941 -2.64852,-3.11591 -8.10135,-8.33505 -16.3585,-15.65742 -8.10135,-7.32238 -16.12481,-13.1647 -24.07037,-17.52697 -7.94555,-4.51806 -18.30593,-8.64663 -31.08114,-12.38572 -12.61941,-3.73909 -25.78411,-5.60863 -39.49409,-5.60863 -19.78599,0 -38.63722,3.73909 -56.55367,11.21726 -17.91645,7.47817 -33.34018,17.52697 -46.27118,30.14638 -12.93101,12.61941 -23.21349,27.73155 -30.84746,45.33641 -7.47817,17.44907 -11.21725,35.8329 -11.21725,55.15151 0,19.16281 3.73908,37.46875 11.21725,54.91781 7.63397,17.44907 17.83855,32.56121 30.61376,45.33642 12.93101,12.61941 28.35474,22.6682 46.27119,30.14637 18.07225,7.47817 37.00137,11.21726 56.78736,11.21726 13.55418,0 26.56308,-1.79165 39.0267,-5.37494 12.61941,-3.58329 23.05769,-7.71186 31.31484,-12.38572 8.25715,-4.67385 16.2027,-10.36038 23.83667,-17.05957 7.78976,-6.6992 13.32049,-11.99624 16.59219,-15.89112 3.4275,-3.89488 6.7771,-8.10135 10.0488,-12.61941 z" />
      </g>
      <g
         id="g991"
         style="font-style:normal;font-weight:normal;font-size:99.70894623px;line-height:1.25;font-family:sans-serif;letter-spacing:0px;word-spacing:0px;fill:#000000;fill-opacity:1;stroke:none;stroke-width:2.49272346"
         aria-label="C"
         transform="translate(1.40783)">
        <g
           id="g995"
           transform="translate(285.85548,17.09749)">
          <path
             sodipodi:nodetypes="ccssscccssccsscscccccscccssscscccscsccc"
             inkscape:connector-curvature="0"
             id="path989"
             style="font-style:normal;font-variant:normal;font-weight:bold;font-stretch:normal;font-size:478.60293579px;font-family:Sawasdee;-inkscape-font-specification:'Sawasdee, Bold';font-variant-ligatures:normal;font-variant-caps:normal;font-variant-numeric:normal;font-feature-settings:normal;text-align:start;writing-mode:lr-tb;text-anchor:start;opacity:0.98999999;fill:#007900;fill-opacity:1;stroke:#000000;stroke-width:70.19200134;stroke-linecap:square;stroke-miterlimit:4;stroke-dasharray:none;stroke-opacity:1"
             d="m 631.74234,591.10503 40.09005,0.60751 c -4.88683,11.26819 -13.05443,22.533 -13.05443,22.533 -4.94268,7.5864 -11.36473,13.7529 -17.35066,19.86932 -36.129,36.91657 -79.63039,55.37485 -130.50416,55.37485 -24.61565,0 -48.21862,-4.67386 -70.80893,-14.02157 -22.43451,-9.34771 -41.83102,-21.88923 -58.18952,-37.62454 -16.20271,-15.73532 -29.13371,-34.50865 -38.79301,-56.31998 -9.65931,-21.96713 -14.48896,-45.02482 -14.48896,-69.17308 0,-24.14826 4.82965,-47.20595 14.48896,-69.17308 9.6593,-21.96713 22.5903,-40.89625 38.79301,-56.78736 16.3585,-15.89111 35.75501,-28.51053 58.18952,-37.85824 22.59031,-9.34771 46.19328,-14.02157 70.80893,-14.02157 12.46361,0 24.53774,1.16846 36.22239,3.50539 11.68464,2.33693 21.96712,5.29704 30.84745,8.88033 8.88033,3.42749 17.52696,7.71186 25.93991,12.85311 8.41294,5.14124 15.42372,10.04879 21.03235,14.72265 5.60863,4.51806 11.13936,9.6593 16.59219,15.42372 5.45283,5.60863 9.50351,10.0488 12.15203,13.3205 2.64852,3.1159 13.7001,20.09522 18.28951,31.57144 l -39.78925,-0.0229 c -4.20647,-5.29704 -7.63397,-9.50351 -10.28248,-12.61941 -2.64852,-3.11591 -8.10135,-8.33505 -16.3585,-15.65742 -8.10135,-7.32238 -16.12481,-13.1647 -24.07037,-17.52697 -7.94555,-4.51806 -18.30593,-8.64663 -31.08114,-12.38572 -12.61941,-3.73909 -25.78411,-5.60863 -39.49409,-5.60863 -19.78599,0 -38.63722,3.73909 -56.55367,11.21726 -17.91645,7.47817 -33.34018,17.52697 -46.27118,30.14638 -12.93101,12.61941 -23.21349,27.73155 -30.84746,45.33641 -7.47817,17.44907 -11.21725,35.8329 -11.21725,55.15151 0,19.16281 3.73908,37.46875 11.21725,54.91781 7.63397,17.44907 17.83855,32.56121 30.61376,45.33642 12.93101,12.61941 28.35474,22.6682 46.27119,30.14637 18.07225,7.47817 37.00137,11.21726 56.78736,11.21726 13.55418,0 26.56308,-1.79165 39.0267,-5.37494 12.61941,-3.58329 23.05769,-7.71186 31.31484,-12.38572 8.25715,-4.67385 16.2027,-10.36038 23.83667,-17.05957 7.78976,-6.6992 13.32049,-11.99624 16.59219,-15.89112 3.4275,-3.89488 6.7771,-8.10135 10.0488,-12.61941 z" />
          <path
             d="m 631.9996,591.10503 40.09005,0.60751 c 0,0 -6.43127,14.58798 -13.05443,22.533 -6.62316,7.94502 -11.36473,13.7529 -17.35066,19.86932 -36.129,36.91657 -79.63039,55.37485 -130.50416,55.37485 -24.61565,0 -48.21862,-4.67386 -70.80893,-14.02157 -22.43451,-9.34771 -41.83102,-21.88923 -58.18952,-37.62454 -16.20271,-15.73532 -29.13371,-34.50865 -38.79301,-56.31998 -9.65931,-21.96713 -14.48896,-45.02482 -14.48896,-69.17308 0,-24.14826 4.82965,-47.20595 14.48896,-69.17308 9.6593,-21.96713 22.5903,-40.89625 38.79301,-56.78736 16.3585,-15.89111 35.75501,-28.51053 58.18952,-37.85824 22.59031,-9.34771 46.19328,-14.02157 70.80893,-14.02157 12.46361,0 24.53774,1.16846 36.22239,3.50539 11.68464,2.33693 21.96712,5.29704 30.84745,8.88033 8.88033,3.42749 17.52696,7.71186 25.93991,12.85311 8.41294,5.14124 15.42372,10.04879 21.03235,14.72265 5.60863,4.51806 11.13936,9.6593 16.59219,15.42372 5.45283,5.60863 9.50351,10.0488 12.15203,13.3205 2.64852,3.1159 13.7001,20.09522 18.28951,31.57144 l -39.78925,-0.0229 c -4.20647,-5.29704 -7.63397,-9.50351 -10.28248,-12.61941 -2.64852,-3.11591 -8.10135,-8.33505 -16.3585,-15.65742 -8.10135,-7.32238 -16.12481,-13.1647 -24.07037,-17.52697 -7.94555,-4.51806 -18.30593,-8.64663 -31.08114,-12.38572 -12.61941,-3.73909 -25.78411,-5.60863 -39.49409,-5.60863 -19.78599,0 -38.63722,3.73909 -56.55367,11.21726 -17.91645,7.47817 -33.34018,17.52697 -46.27118,30.14638 -12.93101,12.61941 -23.21349,27.73155 -30.84746,45.33641 -7.47817,17.44907 -11.21725,35.8329 -11.21725,55.15151 0,19.16281 3.73908,37.46875 11.21725,54.91781 7.63397,17.44907 17.83855,32.56121 30.61376,45.33642 12.93101,12.61941 28.35474,22.6682 46.27119,30.14637 18.07225,7.47817 37.00137,11.21726 56.78736,11.21726 13.55418,0 26.56308,-1.79165 39.0267,-5.37494 12.61941,-3.58329 23.05769,-7.71186 31.31484,-12.38572 8.25715,-4.67385 16.2027,-10.36038 23.83667,-17.05957 7.78976,-6.6992 13.32049,-11.99624 16.59219,-15.89112 3.4275,-3.89488 6.7771,-8.10135 10.0488,-12.61941 z"
             style="font-style:normal;font-variant:normal;font-weight:bold;font-stretch:normal;font-size:478.60293579px;font-family:Sawasdee;-inkscape-font-specification:'Sawasdee, Bold';font-variant-ligatures:normal;font-variant-caps:normal;font-variant-numeric:normal;font-feature-settings:normal;text-align:start;writing-mode:lr-tb;text-anchor:start;opacity:0.98999999;fill:#007900;fill-opacity:1;stroke:#007800;stroke-width:53.831;stroke-linecap:square;stroke-miterlimit:4;stroke-dasharray:none;stroke-opacity:1"
             id="path987"
             inkscape:connector-curvature="0"
             sodipodi:nodetypes="cczsscccssccsscscccccscccssscscccscscccc" />
        </g>
      </g>
    </g>
    <g
       id="g1020"
       transform="matrix(-1,0,0,1,1032.2503,-6.2630015)">
      <g
         id="g1010"
         style="font-style:normal;font-weight:normal;font-size:99.70894623px;line-height:1.25;font-family:sans-serif;letter-spacing:0px;word-spacing:0px;fill:#000000;fill-opacity:1;stroke:none;stroke-width:2.49272346"
         aria-label="C">
        <path
           sodipodi:nodetypes="ccssscccssccsscscccccscccssscscccscsccc"
           inkscape:connector-curvature="0"
           id="path1006"
           style="font-style:normal;font-variant:normal;font-weight:bold;font-stretch:normal;font-size:478.60293579px;font-family:Sawasdee;-inkscape-font-specification:'Sawasdee, Bold';font-variant-ligatures:normal;font-variant-caps:normal;font-variant-numeric:normal;font-feature-settings:normal;text-align:start;writing-mode:lr-tb;text-anchor:start;opacity:0.98999999;fill:#007900;fill-opacity:1;stroke:#000000;stroke-width:5.1401577;stroke-linecap:square;stroke-miterlimit:4;stroke-dasharray:none;stroke-opacity:1"
           d="m 925.85508,608.20252 40.09005,0.60751 c -4.88683,11.26819 -13.05443,22.533 -13.05443,22.533 -4.94268,7.5864 -11.36473,13.7529 -17.35066,19.86932 -36.129,36.91657 -79.63039,55.37485 -130.50416,55.37485 -24.61565,0 -48.21862,-4.67386 -70.80893,-14.02157 -22.43451,-9.34771 -41.83102,-21.88923 -58.18952,-37.62454 -16.20271,-15.73532 -29.13371,-34.50865 -38.79301,-56.31998 -9.65931,-21.96713 -14.48896,-45.02482 -14.48896,-69.17308 0,-24.14826 4.82965,-47.20595 14.48896,-69.17308 9.6593,-21.96713 22.5903,-40.89625 38.79301,-56.78736 16.3585,-15.89111 35.75501,-28.51053 58.18952,-37.85824 22.59031,-9.34771 46.19328,-14.02157 70.80893,-14.02157 12.46361,0 24.53774,1.16846 36.22239,3.50539 11.68464,2.33693 21.96712,5.29704 30.84745,8.88033 8.88033,3.42749 17.52696,7.71186 25.93991,12.85311 8.41294,5.14124 15.42372,10.04879 21.03235,14.72265 5.60863,4.51806 11.13936,9.6593 16.59219,15.42372 5.45283,5.60863 9.50351,10.0488 12.15203,13.3205 2.64852,3.1159 13.7001,20.09522 18.28951,31.57144 l -39.78925,-0.0229 c -4.20647,-5.29704 -7.63397,-9.50351 -10.28248,-12.61941 -2.64852,-3.11591 -8.10135,-8.33505 -16.3585,-15.65742 -8.10135,-7.32238 -16.12481,-13.1647 -24.07037,-17.52697 -7.94555,-4.51806 -18.30593,-8.64663 -31.08114,-12.38572 -12.61941,-3.73909 -25.78411,-5.60863 -39.49409,-5.60863 -19.78599,0 -38.63722,3.73909 -56.55367,11.21726 -17.91645,7.47817 -33.34018,17.52697 -46.27118,30.14638 -12.93101,12.61941 -23.21349,27.73155 -30.84746,45.33641 -7.47817,17.44907 -11.21725,35.8329 -11.21725,55.15151 0,19.16281 3.73908,37.46875 11.21725,54.91781 7.63397,17.44907 17.83855,32.56121 30.61376,45.33642 12.93101,12.61941 28.35474,22.6682 46.27119,30.14637 18.07225,7.47817 37.00137,11.21726 56.78736,11.21726 13.55418,0 26.56308,-1.79165 39.0267,-5.37494 12.61941,-3.58329 23.05769,-7.71186 31.31484,-12.38572 8.25715,-4.67385 16.2027,-10.36038 23.83667,-17.05957 7.78976,-6.6992 13.32049,-11.99624 16.59219,-15.89112 3.4275,-3.89488 6.7771,-8.10135 10.0488,-12.61941 z" />
        <path
           d="m 921.85508,608.20252 40.09005,0.60751 c -4.88683,11.26819 -13.05443,22.533 -13.05443,22.533 -4.94268,7.5864 -11.36473,13.7529 -17.35066,19.86932 -36.129,36.91657 -79.63039,55.37485 -130.50416,55.37485 -24.61565,0 -48.21862,-4.67386 -70.80893,-14.02157 -22.43451,-9.34771 -41.83102,-21.88923 -58.18952,-37.62454 -16.20271,-15.73532 -29.13371,-34.50865 -38.79301,-56.31998 -9.65931,-21.96713 -14.48896,-45.02482 -14.48896,-69.17308 0,-24.14826 4.82965,-47.20595 14.48896,-69.17308 9.6593,-21.96713 22.5903,-40.89625 38.79301,-56.78736 16.3585,-15.89111 35.75501,-28.51053 58.18952,-37.85824 22.59031,-9.34771 46.19328,-14.02157 70.80893,-14.02157 12.46361,0 24.53774,1.16846 36.22239,3.50539 11.68464,2.33693 21.96712,5.29704 30.84745,8.88033 8.88033,3.42749 17.52696,7.71186 25.93991,12.85311 8.41294,5.14124 15.42372,10.04879 21.03235,14.72265 5.60863,4.51806 11.13936,9.6593 16.59219,15.42372 5.45283,5.60863 9.50351,10.0488 12.15203,13.3205 2.64852,3.1159 13.7001,20.09522 18.28951,31.57144 l -39.78925,-0.0229 c -4.20647,-5.29704 -7.63397,-9.50351 -10.28248,-12.61941 -2.64852,-3.11591 -8.10135,-8.33505 -16.3585,-15.65742 -8.10135,-7.32238 -16.12481,-13.1647 -24.07037,-17.52697 -7.94555,-4.51806 -18.30593,-8.64663 -31.08114,-12.38572 -12.61941,-3.73909 -25.78411,-5.60863 -39.49409,-5.60863 -19.78599,0 -38.63722,3.73909 -56.55367,11.21726 -17.91645,7.47817 -33.34018,17.52697 -46.27118,30.14638 -12.93101,12.61941 -23.21349,27.73155 -30.84746,45.33641 -7.47817,17.44907 -11.21725,35.8329 -11.21725,55.15151 0,19.16281 3.73908,37.46875 11.21725,54.91781 7.63397,17.44907 17.83855,32.56121 30.61376,45.33642 12.93101,12.61941 28.35474,22.6682 46.27119,30.14637 18.07225,7.47817 37.00137,11.21726 56.78736,11.21726 13.55418,0 26.56308,-1.79165 39.0267,-5.37494 12.61941,-3.58329 23.05769,-7.71186 31.31484,-12.38572 8.25715,-4.67385 16.2027,-10.36038 23.83667,-17.05957 7.78976,-6.6992 13.32049,-11.99624 16.59219,-15.89112 3.4275,-3.89488 6.7771,-8.10135 10.0488,-12.61941 z"
           style="font-style:normal;font-variant:normal;font-weight:bold;font-stretch:normal;font-size:478.60293579px;font-family:Sawasdee;-inkscape-font-specification:'Sawasdee, Bold';font-variant-ligatures:normal;font-variant-caps:normal;font-variant-numeric:normal;font-feature-settings:normal;text-align:start;writing-mode:lr-tb;text-anchor:start;opacity:0.98999999;fill:#007900;fill-opacity:1;stroke:#000000;stroke-width:69.39212799;stroke-linecap:square;stroke-miterlimit:4;stroke-dasharray:none;stroke-opacity:1"
           id="path1008"
           inkscape:connector-curvature="0"
           sodipodi:nodetypes="ccssscccssccsscscccccscccssscscccscsccc" />
      </g>
      <g
         aria-label="C"
         style="font-style:normal;font-weight:normal;font-size:99.70894623px;line-height:1.25;font-family:sans-serif;letter-spacing:0px;word-spacing:0px;fill:#000000;fill-opacity:1;stroke:none;stroke-width:2.49272346"
         id="g1018">
        <g
           transform="translate(285.85548,17.09749)"
           id="g1016">
          <path
             d="m 634.59177,591.10503 40.09005,0.60751 c -4.88683,11.26819 -13.05443,22.533 -13.05443,22.533 -4.94268,7.5864 -11.36473,13.7529 -17.35066,19.86932 -36.129,36.91657 -79.63039,55.37485 -130.50416,55.37485 -24.61565,0 -48.21862,-4.67386 -70.80893,-14.02157 -22.43451,-9.34771 -41.83102,-21.88923 -58.18952,-37.62454 -16.20271,-15.73532 -29.13371,-34.50865 -38.79301,-56.31998 -9.65931,-21.96713 -14.48896,-45.02482 -14.48896,-69.17308 0,-24.14826 4.82965,-47.20595 14.48896,-69.17308 9.6593,-21.96713 22.5903,-40.89625 38.79301,-56.78736 16.3585,-15.89111 35.75501,-28.51053 58.18952,-37.85824 22.59031,-9.34771 46.19328,-14.02157 70.80893,-14.02157 12.46361,0 24.53774,1.16846 36.22239,3.50539 11.68464,2.33693 21.96712,5.29704 30.84745,8.88033 8.88033,3.42749 17.52696,7.71186 25.93991,12.85311 8.41294,5.14124 15.42372,10.04879 21.03235,14.72265 5.60863,4.51806 11.13936,9.6593 16.59219,15.42372 5.45283,5.60863 9.50351,10.0488 12.15203,13.3205 2.64852,3.1159 13.7001,20.09522 18.28951,31.57144 l -39.78925,-0.0229 c -4.20647,-5.29704 -7.63397,-9.50351 -10.28248,-12.61941 -2.64852,-3.11591 -8.10135,-8.33505 -16.3585,-15.65742 -8.10135,-7.32238 -16.12481,-13.1647 -24.07037,-17.52697 -7.94555,-4.51806 -18.30593,-8.64663 -31.08114,-12.38572 -12.61941,-3.73909 -25.78411,-5.60863 -39.49409,-5.60863 -19.78599,0 -38.63722,3.73909 -56.55367,11.21726 -17.91645,7.47817 -33.34018,17.52697 -46.27118,30.14638 -12.93101,12.61941 -23.21349,27.73155 -30.84746,45.33641 -7.47817,17.44907 -11.21725,35.8329 -11.21725,55.15151 0,19.16281 3.73908,37.46875 11.21725,54.91781 7.63397,17.44907 17.83855,32.56121 30.61376,45.33642 12.93101,12.61941 28.35474,22.6682 46.27119,30.14637 18.07225,7.47817 37.00137,11.21726 56.78736,11.21726 13.55418,0 26.56308,-1.79165 39.0267,-5.37494 12.61941,-3.58329 23.05769,-7.71186 31.31484,-12.38572 8.25715,-4.67385 16.2027,-10.36038 23.83667,-17.05957 7.78976,-6.6992 13.32049,-11.99624 16.59219,-15.89112 3.4275,-3.89488 6.7771,-8.10135 10.0488,-12.61941 z"
             style="font-style:normal;font-variant:normal;font-weight:bold;font-stretch:normal;font-size:478.60293579px;font-family:Sawasdee;-inkscape-font-specification:'Sawasdee, Bold';font-variant-ligatures:normal;font-variant-caps:normal;font-variant-numeric:normal;font-feature-settings:normal;text-align:start;writing-mode:lr-tb;text-anchor:start;opacity:0.98999999;fill:#007900;fill-opacity:1;stroke:#000000;stroke-width:70.19200134;stroke-linecap:square;stroke-miterlimit:4;stroke-dasharray:none;stroke-opacity:1"
             id="path1012"
             inkscape:connector-curvature="0"
             sodipodi:nodetypes="ccssscccssccsscscccccscccssscscccscsccc" />
          <path
             sodipodi:nodetypes="cczsscccssccsscscccccscccssscscccscscccc"
             inkscape:connector-curvature="0"
             id="path1014"
             style="font-style:normal;font-variant:normal;font-weight:bold;font-stretch:normal;font-size:478.60293579px;font-family:Sawasdee;-inkscape-font-specification:'Sawasdee, Bold';font-variant-ligatures:normal;font-variant-caps:normal;font-variant-numeric:normal;font-feature-settings:normal;text-align:start;writing-mode:lr-tb;text-anchor:start;opacity:0.98999999;fill:#007900;fill-opacity:1;stroke:#007800;stroke-width:51.63100052;stroke-linecap:square;stroke-miterlimit:4;stroke-dasharray:none;stroke-opacity:1"
             d="m 636.74629,591.10503 40.09005,0.60751 c 0,0 -6.43127,14.58798 -13.05443,22.533 -6.62316,7.94502 -11.36473,13.7529 -17.35066,19.86932 -36.129,36.91657 -79.63039,55.37485 -130.50416,55.37485 -24.61565,0 -48.21862,-4.67386 -70.80893,-14.02157 -22.43451,-9.34771 -41.83102,-21.88923 -58.18952,-37.62454 -16.20271,-15.73532 -29.13371,-34.50865 -38.79301,-56.31998 -9.65931,-21.96713 -14.48896,-45.02482 -14.48896,-69.17308 0,-24.14826 4.82965,-47.20595 14.48896,-69.17308 9.6593,-21.96713 22.5903,-40.89625 38.79301,-56.78736 16.3585,-15.89111 35.75501,-28.51053 58.18952,-37.85824 22.59031,-9.34771 46.19328,-14.02157 70.80893,-14.02157 12.46361,0 24.53774,1.16846 36.22239,3.50539 11.68464,2.33693 21.96712,5.29704 30.84745,8.88033 8.88033,3.42749 17.52696,7.71186 25.93991,12.85311 8.41294,5.14124 15.42372,10.04879 21.03235,14.72265 5.60863,4.51806 11.13936,9.6593 16.59219,15.42372 5.45283,5.60863 9.50351,10.0488 12.15203,13.3205 2.64852,3.1159 13.7001,20.09522 18.28951,31.57144 l -39.78925,-0.0229 c -4.20647,-5.29704 -7.63397,-9.50351 -10.28248,-12.61941 -2.64852,-3.11591 -8.10135,-8.33505 -16.3585,-15.65742 -8.10135,-7.32238 -16.12481,-13.1647 -24.07037,-17.52697 -7.94555,-4.51806 -18.30593,-8.64663 -31.08114,-12.38572 -12.61941,-3.73909 -25.78411,-5.60863 -39.49409,-5.60863 -19.78599,0 -38.63722,3.73909 -56.55367,11.21726 -17.91645,7.47817 -33.34018,17.52697 -46.27118,30.14638 -12.93101,12.61941 -23.21349,27.73155 -30.84746,45.33641 -7.47817,17.44907 -11.21725,35.8329 -11.21725,55.15151 0,19.16281 3.73908,37.46875 11.21725,54.91781 7.63397,17.44907 17.83855,32.56121 30.61376,45.33642 12.93101,12.61941 28.35474,22.6682 46.27119,30.14637 18.07225,7.47817 37.00137,11.21726 56.78736,11.21726 13.55418,0 26.56308,-1.79165 39.0267,-5.37494 12.61941,-3.58329 23.05769,-7.71186 31.31484,-12.38572 8.25715,-4.67385 16.2027,-10.36038 23.83667,-17.05957 7.78976,-6.6992 13.32049,-11.99624 16.59219,-15.89112 3.4275,-3.89488 6.7771,-8.10135 10.0488,-12.61941 z" />
        </g>
      </g>
    </g>
  </g>
</svg>
